<svg id="Layer_1" data-name="Layer 1" xmlns="http://www.w3.org/2000/svg" viewBox="0 0 400 400"><defs><style>.cls-1{opacity:0.9;}.cls-2{opacity:0.95;}.cls-3{opacity:0.85;}</style></defs><title>ArtOFLiving</title><path class="cls-1" d="M237.06,205.17a8,8,0,0,1-8-8v-2.58a8,8,0,0,1,8-8h46.3a2.91,2.91,0,0,0,2.91-2.92h0a2.91,2.91,0,0,0-2.91-2.91H128.79a15.11,15.11,0,0,0-15.06,15.06v0A15.1,15.1,0,0,0,128.79,211H283.36a2.91,2.91,0,0,0,2.91-2.91h0a2.91,2.91,0,0,0-2.91-2.91Z"/><path class="cls-2" d="M162.94,165.6a8,8,0,0,0,8-8v-2.58a8,8,0,0,0-8-8h-46.3a2.91,2.91,0,0,1-2.91-2.91h0a2.91,2.91,0,0,1,2.91-2.91H271.21a15.1,15.1,0,0,1,15.06,15.06v0a15.11,15.11,0,0,1-15.06,15.06H116.64a2.91,2.91,0,0,1-2.91-2.91h0a2.91,2.91,0,0,1,2.91-2.92Z"/><path class="cls-3" d="M162.94,86.47a8,8,0,0,0,8-8V75.93a8,8,0,0,0-8-8h-46.3a2.91,2.91,0,0,1-2.91-2.91h0a2.91,2.91,0,0,1,2.91-2.92H271.21A15.11,15.11,0,0,1,286.27,77.2v0A15.11,15.11,0,0,1,271.21,92.3H116.64a2.91,2.91,0,0,1-2.91-2.91h0a2.91,2.91,0,0,1,2.91-2.92Z"/><path d="M162.94,244.73a8,8,0,0,0,8-8v-2.58a8,8,0,0,0-8-8h-46.3a2.91,2.91,0,0,1-2.91-2.91h0a2.91,2.91,0,0,1,2.91-2.91H271.21a15.1,15.1,0,0,1,15.06,15.06v0a15.11,15.11,0,0,1-15.06,15.06H116.64a2.91,2.91,0,0,1-2.91-2.91h0a2.91,2.91,0,0,1,2.91-2.92Z"/><path class="cls-1" d="M237.06,126a8,8,0,0,1-8-8v-2.58a8,8,0,0,1,8-8h46.3a2.91,2.91,0,0,0,2.91-2.92h0a2.91,2.91,0,0,0-2.91-2.91H128.79a15.11,15.11,0,0,0-15.06,15.06v0a15.1,15.1,0,0,0,15.06,15.06H283.36a2.91,2.91,0,0,0,2.91-2.91h0a2.91,2.91,0,0,0-2.91-2.91Z"/></svg>