<svg id="Layer_1" data-name="Layer 1" xmlns="http://www.w3.org/2000/svg" viewBox="0 0 400 400"><defs><style>.cls-1{opacity:0.9;}.cls-2{opacity:0.95;}.cls-3{opacity:0.85;}</style></defs><title>ArtOFLiving</title><path class="cls-1" d="M237.06,205.17a8,8,0,0,1-8-8v-2.58a8,8,0,0,1,8-8h46.3a2.91,2.91,0,0,0,2.91-2.92h0a2.91,2.91,0,0,0-2.91-2.91H128.79a15.11,15.11,0,0,0-15.06,15.06v0A15.1,15.1,0,0,0,128.79,211H283.36a2.91,2.91,0,0,0,2.91-2.91h0a2.91,2.91,0,0,0-2.91-2.91Z"/><path class="cls-2" d="M162.94,165.6a8,8,0,0,0,8-8v-2.58a8,8,0,0,0-8-8h-46.3a2.91,2.91,0,0,1-2.91-2.91h0a2.91,2.91,0,0,1,2.91-2.91H271.21a15.1,15.1,0,0,1,15.06,15.06v0a15.11,15.11,0,0,1-15.06,15.06H116.64a2.91,2.91,0,0,1-2.91-2.91h0a2.91,2.91,0,0,1,2.91-2.92Z"/><path class="cls-3" d="M162.94,86.47a8,8,0,0,0,8-8V75.93a8,8,0,0,0-8-8h-46.3a2.91,2.91,0,0,1-2.91-2.91h0a2.91,2.91,0,0,1,2.91-2.92H271.21A15.11,15.11,0,0,1,286.27,77.2v0A15.11,15.11,0,0,1,271.21,92.3H116.64a2.91,2.91,0,0,1-2.91-2.91h0a2.91,2.91,0,0,1,2.91-2.92Z"/><path d="M162.94,244.73a8,8,0,0,0,8-8v-2.58a8,8,0,0,0-8-8h-46.3a2.91,2.91,0,0,1-2.91-2.91h0a2.91,2.91,0,0,1,2.91-2.91H271.21a15.1,15.1,0,0,1,15.06,15.06v0a15.11,15.11,0,0,1-15.06,15.06H116.64a2.91,2.91,0,0,1-2.91-2.91h0a2.91,2.91,0,0,1,2.91-2.92Z"/><path class="cls-1" d="M237.06,126a8,8,0,0,1-8-8v-2.58a8,8,0,0,1,8-8h46.3a2.91,2.91,0,0,0,2.91-2.92h0a2.91,2.91,0,0,0-2.91-2.91H128.79a15.11,15.11,0,0,0-15.06,15.06v0a15.1,15.1,0,0,0,15.06,15.06H283.36a2.91,2.91,0,0,0,2.91-2.91h0a2.91,2.91,0,0,0-2.91-2.91Z"/><path d="M127.88,289.64a4.79,4.79,0,0,0-1.2-.1h-7a2.13,2.13,0,0,1-1-.2.74.74,0,0,1-.38-.73,1,1,0,0,1,.19-.62,3.51,3.51,0,0,0,.88.12,3.33,3.33,0,0,0,.78-.09,1.91,1.91,0,0,0,.69-.3,1.81,1.81,0,0,0,.83-1.52V272.67H120.1a10,10,0,0,0-2.3.16,2.16,2.16,0,0,0-.82.42,1.87,1.87,0,0,0-.44.7,10.27,10.27,0,0,0-.47,2.6,2.25,2.25,0,0,1-.49.06c-.33,0-.53-.08-.62-.25a1.75,1.75,0,0,1-.18-.53,5.32,5.32,0,0,1-.08-.61c0-.43,0-.9,0-1.39a6.34,6.34,0,0,1,.32-2.58,1.31,1.31,0,0,1,1.27-.59,4.25,4.25,0,0,1,.53,0l1,.08c1.21.08,2.66.11,4.35.11h2c2.36,0,3.93,0,4.72-.11s1.29-.12,1.49-.12a1.51,1.51,0,0,1,.53.09.77.77,0,0,1,.39.24,1,1,0,0,1,.23.67c0,.41,0,.73,0,1s-.05.53-.08.87-.07.67-.12,1a5.63,5.63,0,0,1-.42,1.74.71.71,0,0,1-.59.34,2.9,2.9,0,0,1-.62-.06v-.77a9.38,9.38,0,0,0-.12-1.7,1.49,1.49,0,0,0-.51-.94,2.09,2.09,0,0,0-1.12-.39c-.48-.05-1.13-.08-1.94-.08h-1.46v14c0,.59.46,1,1.4,1.22l.65.13.6.13a2,2,0,0,1,.48.17.68.68,0,0,1,.39.65A1,1,0,0,1,127.88,289.64Z"/><path d="M141.18,289.64a4.83,4.83,0,0,0-1.21-.1H134.9a2.09,2.09,0,0,1-1-.2.76.76,0,0,1-.38-.73.92.92,0,0,1,.19-.62,3.72,3.72,0,0,0,.9.12,1.91,1.91,0,0,0,.65-.09,1,1,0,0,0,.43-.32,2.81,2.81,0,0,0,.36-1.62V273.63c0-.57-.21-.93-.56-1.08a2.71,2.71,0,0,0-.43-.14l-.59-.12a1.13,1.13,0,0,1-.73-.36.77.77,0,0,1-.13-.43,1.19,1.19,0,0,1,.18-.7,5,5,0,0,0,1.2.09h5a2.21,2.21,0,0,1,1,.2.76.76,0,0,1,.39.74.91.91,0,0,1-.2.62,4,4,0,0,0-1-.12c-.78,0-1.19.64-1.21,1.92v5.38h9.73v-6c0-.57-.21-.93-.56-1.08a2.89,2.89,0,0,0-.44-.14l-.58-.12a1.13,1.13,0,0,1-.73-.36.78.78,0,0,1-.14-.43,1,1,0,0,1,.19-.7,4.84,4.84,0,0,0,1.2.09h4.95a2.28,2.28,0,0,1,1,.2.77.77,0,0,1,.38.74.9.9,0,0,1-.19.62,4.05,4.05,0,0,0-1-.12c-.79,0-1.2.64-1.22,1.92v12.42a1.1,1.1,0,0,0,1,1.32l.74.16a2.14,2.14,0,0,1,.49.17.68.68,0,0,1,.39.65,1,1,0,0,1-.2.67,4.67,4.67,0,0,0-1.2-.1h-5.07a2.06,2.06,0,0,1-1-.2.74.74,0,0,1-.38-.73,1,1,0,0,1,.18-.62,3.49,3.49,0,0,0,.87.12,1.73,1.73,0,0,0,.62-.09.75.75,0,0,0,.37-.3,2.69,2.69,0,0,0,.37-1.52v-4.89h-9.73v5.36c0,.64.17,1.05.53,1.22a2.4,2.4,0,0,0,.46.13l.58.13a2.22,2.22,0,0,1,.48.17.67.67,0,0,1,.4.65A1,1,0,0,1,141.18,289.64Z"/><path d="M170,284.13a1,1,0,0,1,.69-.28c.38,0,.59,0,.65.16a7.48,7.48,0,0,1,.47,3.14,5.18,5.18,0,0,1-.34,2.2c-.07.13-.15.19-.23.19H157.81c-1,0-1.45-.28-1.45-.86a1.08,1.08,0,0,1,.2-.7,2.82,2.82,0,0,0,.8.12A3.26,3.26,0,0,0,158,288a1.22,1.22,0,0,0,.52-.26,1.81,1.81,0,0,0,.59-1.52V273.93a1.28,1.28,0,0,0-.86-1.35l-.5-.15-.5-.13-.42-.15a.68.68,0,0,1-.41-.6,1.09,1.09,0,0,1,.19-.72,1.67,1.67,0,0,0,.44.06h12.45a2.85,2.85,0,0,1,1.4.21c.34.24.51.78.51,1.61a7.91,7.91,0,0,1-.2,1.94,5,5,0,0,1-.29.9.48.48,0,0,1-.47.22,1.28,1.28,0,0,1-.7-.13c-.13-.08-.2-.14-.2-.18a4.76,4.76,0,0,0-.55-2.22,2,2,0,0,0-.92-.66,4.35,4.35,0,0,0-1.38-.18H164a2.86,2.86,0,0,0-1.58.26,1.08,1.08,0,0,0-.36.59,4.07,4.07,0,0,0-.07.86v5.18h.72a25.07,25.07,0,0,0,5-.47c.12.05.22.21.31.48a2.36,2.36,0,0,1,.13.78,2.74,2.74,0,0,1-.22,1.15c-.53,0-1.15.07-1.85.07S164,281.19,162,281v5.48a1.37,1.37,0,0,0,.48,1.23A3,3,0,0,0,164,288l1.84-.05a6.46,6.46,0,0,0,3.46-.74,1.73,1.73,0,0,0,.6-1A4.93,4.93,0,0,0,170,285Q170,284.4,170,284.13Z"/><path d="M195.14,288.11a4.52,4.52,0,0,0,.76.08,2.21,2.21,0,0,0,.51-.05,1.57,1.57,0,0,0,.44-.18.91.91,0,0,0,.44-.84,2.42,2.42,0,0,0-.29-1.05l-1.15-2.84h-7.7l-1.36,3.46a2,2,0,0,0-.19.68.65.65,0,0,0,.06.32.63.63,0,0,0,.21.18,1.3,1.3,0,0,0,.35.12l.5.13a5.21,5.21,0,0,1,1,.24.74.74,0,0,1,.47.69.91.91,0,0,1-.18.56,1.67,1.67,0,0,0-.42-.07h-5c-1.07,0-1.61-.29-1.61-.88a1.13,1.13,0,0,1,.18-.67,3,3,0,0,0,.76.12,1.15,1.15,0,0,0,.52-.1,1.11,1.11,0,0,0,.41-.33,6.2,6.2,0,0,0,.77-1.6l6-14.55q.26-.58,1.44-.81a3.88,3.88,0,0,1,.7-.06c.49,0,.8.14.91.4l1.22,3.05q3.51,8.29,4.06,9.68l1.1,2.87a3.91,3.91,0,0,0,.54,1.16,1.37,1.37,0,0,0,.48.3,4.1,4.1,0,0,0,.53.14,2.74,2.74,0,0,1,.48.14.67.67,0,0,1,.46.63.87.87,0,0,1-.18.56,1.7,1.7,0,0,0-.42-.06h-5.8a2.53,2.53,0,0,1-1-.15.49.49,0,0,1-.34-.47A1.14,1.14,0,0,1,195.14,288.11Zm0-6.61L192,273.62l-3.12,7.88Z"/><path d="M211.27,289.64a4.69,4.69,0,0,0-1.19-.1h-5a2.11,2.11,0,0,1-1-.2.75.75,0,0,1-.37-.73,1,1,0,0,1,.18-.62,3.52,3.52,0,0,0,.89.12,2,2,0,0,0,.67-.09,1,1,0,0,0,.42-.32,2.73,2.73,0,0,0,.37-1.62V273.63c0-.57-.21-.93-.56-1.08a3.11,3.11,0,0,0-.43-.14l-.54-.12a2,2,0,0,1-.44-.17.57.57,0,0,1-.37-.51,1.3,1.3,0,0,1,.2-.81,4.84,4.84,0,0,0,1.2.09h1.58l4.27-.12h.53a9.68,9.68,0,0,1,5.61,1.33,4.35,4.35,0,0,1,1.86,3.75,5.36,5.36,0,0,1-1.18,3.34,6.51,6.51,0,0,1-3.63,2.29,6.37,6.37,0,0,1,1.44,1.6l1.29,1.89q1.82,2.64,3,2.64a2,2,0,0,0,.68-.09l.31-.12a.72.72,0,0,1,.22,0c.08,0,.16.07.25.19a.74.74,0,0,1,.14.44,1.11,1.11,0,0,1-.21.57,2,2,0,0,1-.59.61,3.08,3.08,0,0,1-1.86.62,3.68,3.68,0,0,1-1.66-.34,4.85,4.85,0,0,1-1.19-.9,7.87,7.87,0,0,1-1-1.26c-.29-.47-.57-.95-.83-1.45l-.72-1.44a8.18,8.18,0,0,0-1.22-2,1.24,1.24,0,0,0-.83-.46h-1.23c-.2,0-.31-.14-.31-.44a1.13,1.13,0,0,1,.47-.95,2.43,2.43,0,0,1,.95-.12,6.43,6.43,0,0,0,1.78-.34,4.75,4.75,0,0,0,1.63-.86,3.8,3.8,0,0,0,1.26-3,3.56,3.56,0,0,0-1.1-2.69,4.88,4.88,0,0,0-3.45-1.21,3.07,3.07,0,0,0-2,.44,2.11,2.11,0,0,0-.51,1.57v12.42c0,.64.18,1.05.53,1.22a2.77,2.77,0,0,0,.45.13l.55.13a2,2,0,0,1,.44.17.59.59,0,0,1,.37.52A1.28,1.28,0,0,1,211.27,289.64Z"/><path d="M235.85,289.64a4.83,4.83,0,0,0-1.21-.1h-7a2.09,2.09,0,0,1-1-.2.75.75,0,0,1-.39-.73,1,1,0,0,1,.2-.62,3.49,3.49,0,0,0,.87.12,3.21,3.21,0,0,0,.78-.09,1.88,1.88,0,0,0,.7-.3,1.77,1.77,0,0,0,.82-1.52V272.67h-1.58a10,10,0,0,0-2.3.16,2.16,2.16,0,0,0-.82.42,1.87,1.87,0,0,0-.44.7,10.64,10.64,0,0,0-.48,2.6,2.24,2.24,0,0,1-.48.06c-.33,0-.53-.08-.62-.25a2.1,2.1,0,0,1-.19-.53c0-.19-.05-.39-.07-.61,0-.43,0-.9,0-1.39a6.34,6.34,0,0,1,.32-2.58,1.3,1.3,0,0,1,1.26-.59,4.38,4.38,0,0,1,.54,0l1,.08c1.21.08,2.66.11,4.34.11h2.06c2.35,0,3.93,0,4.72-.11s1.29-.12,1.49-.12a1.51,1.51,0,0,1,.53.09.86.86,0,0,1,.39.24,1,1,0,0,1,.23.67c0,.41,0,.73,0,1s-.06.53-.08.87-.07.67-.12,1a5.29,5.29,0,0,1-.43,1.74.69.69,0,0,1-.59.34,2.8,2.8,0,0,1-.61-.06v-.77a9.38,9.38,0,0,0-.12-1.7,1.49,1.49,0,0,0-.51-.94,2.09,2.09,0,0,0-1.12-.39c-.49-.05-1.14-.08-1.95-.08h-1.46v14c0,.59.47,1,1.4,1.22l.65.13.61.13a2.22,2.22,0,0,1,.48.17.68.68,0,0,1,.39.65A1,1,0,0,1,235.85,289.64Z"/><path d="M253.42,287.37a8,8,0,0,1-1.81-2.78,9.39,9.39,0,0,1-.65-3.47,13,13,0,0,1,.36-3.23,10.86,10.86,0,0,1,1-2.54,9.34,9.34,0,0,1,3.47-3.48,9.05,9.05,0,0,1,4.59-1.21,8.23,8.23,0,0,1,6.11,2.39,8.87,8.87,0,0,1,2.47,6.53,10.92,10.92,0,0,1-1.38,5.49,9.22,9.22,0,0,1-3.45,3.48,8.43,8.43,0,0,1-4.27,1.23,10,10,0,0,1-3.72-.63A8,8,0,0,1,253.42,287.37Zm2-12.72a7,7,0,0,0-1.06,2.45,13.71,13.71,0,0,0-.34,3.08,13.45,13.45,0,0,0,.32,3,7.21,7.21,0,0,0,1,2.4,5,5,0,0,0,4.48,2.25,5.41,5.41,0,0,0,4.53-2,8.67,8.67,0,0,0,1.49-5.43q0-5.41-3.21-7.27a5.47,5.47,0,0,0-2.72-.64,5.89,5.89,0,0,0-2.67.55A4.81,4.81,0,0,0,255.46,274.65Z"/><path d="M280.68,289.64a4.79,4.79,0,0,0-1.2-.1h-6.73a2.15,2.15,0,0,1-1-.2.76.76,0,0,1-.38-.73,1,1,0,0,1,.2-.62,3.26,3.26,0,0,0,.87.12,2.41,2.41,0,0,0,.71-.09,1.29,1.29,0,0,0,.5-.32,2.29,2.29,0,0,0,.5-1.62V273.93a1.28,1.28,0,0,0-.86-1.35l-.5-.15-.5-.13-.42-.15a.66.66,0,0,1-.41-.6,1.09,1.09,0,0,1,.19-.72,1.54,1.54,0,0,0,.43.06h12.31a2.59,2.59,0,0,1,1.35.21c.3.23.45.76.45,1.61a7.81,7.81,0,0,1-.19,1.94,4.21,4.21,0,0,1-.3.88.5.5,0,0,1-.46.27,1.17,1.17,0,0,1-.71-.17c-.14-.12-.21-.2-.21-.25a4.12,4.12,0,0,0-.64-2.32,2.8,2.8,0,0,0-2.2-.66h-2.33a3.52,3.52,0,0,0-1.63.23,1,1,0,0,0-.41.52,3.1,3.1,0,0,0-.09.76v5.61h.57a25.11,25.11,0,0,0,5.13-.46c.29.12.44.56.44,1.31a2.74,2.74,0,0,1-.22,1.1c-.53,0-1.09.07-1.7.07s-1.27,0-2-.11l-2.25-.24v5.48c0,.7.54,1.12,1.64,1.25a7.1,7.1,0,0,1,1.7.33,1.06,1.06,0,0,1,.43.32.7.7,0,0,1,.1.37A1.12,1.12,0,0,1,280.68,289.64Z"/><path d="M142.22,326c0,3.15-.42,5.32-1.26,6.53H118.07a2.69,2.69,0,0,1-2.28-.84,1.1,1.1,0,0,1-.21-.65,2,2,0,0,1,.33-1.22,6.83,6.83,0,0,0,1.87.21c1.72,0,2.58-1.05,2.58-3.17V305.3a1.91,1.91,0,0,0-1.22-1.95,6.19,6.19,0,0,0-.88-.32l-1.05-.27a2.13,2.13,0,0,1-1.25-.62,1.33,1.33,0,0,1-.24-.74,1.89,1.89,0,0,1,.34-1.22,7.94,7.94,0,0,0,2.08.17h9.14a3.71,3.71,0,0,1,1.74.34,1.31,1.31,0,0,1,.65,1.27,1.55,1.55,0,0,1-.31,1.07,6,6,0,0,0-1.52-.21,3.41,3.41,0,0,0-1.14.16,1.76,1.76,0,0,0-.72.54,4.44,4.44,0,0,0-.67,2.62v21.21a2.21,2.21,0,0,0,.86,2,5.17,5.17,0,0,0,2.54.44l1.57,0,1.81,0c3,0,5-.68,6-2a6.08,6.08,0,0,0,.94-2.53c.16-1,.3-2.19.43-3.53a1.66,1.66,0,0,1,.9-.21,2.88,2.88,0,0,1,1.45.25A18,18,0,0,1,142.22,326Z"/><path d="M159.54,332.67a8.21,8.21,0,0,0-2.08-.16h-8.75a3.7,3.7,0,0,1-1.74-.35,1.31,1.31,0,0,1-.65-1.27,1.68,1.68,0,0,1,.32-1.07,6.31,6.31,0,0,0,1.54.21,3.34,3.34,0,0,0,1.11-.15,1.47,1.47,0,0,0,.7-.52,4.28,4.28,0,0,0,.69-2.62V305.3c0-1.11-.3-1.8-.92-2.08a3.3,3.3,0,0,0-.8-.25l-1-.22a4,4,0,0,1-.83-.28,1.17,1.17,0,0,1-.67-1.14,1.77,1.77,0,0,1,.31-1.15,8,8,0,0,0,2.08.17h8.54a3.81,3.81,0,0,1,1.75.34,1.32,1.32,0,0,1,.66,1.27,1.51,1.51,0,0,1-.34,1.07,6.8,6.8,0,0,0-1.74-.21c-1.35,0-2,1.11-2.1,3.32v21.42c0,1.1.31,1.8.93,2.09a3.83,3.83,0,0,0,.79.23l1,.22a4,4,0,0,1,.83.29,1.19,1.19,0,0,1,.69,1.13A1.79,1.79,0,0,1,159.54,332.67Z"/><path d="M194.92,303a2.91,2.91,0,0,0-1.22-.21,1.73,1.73,0,0,0-1.16.33,3.5,3.5,0,0,0-.73.91,10.53,10.53,0,0,0-.65,1.41L182.5,329q-1.41,3.93-4.68,3.93c-.69,0-1.1-.2-1.26-.59L166.22,306c-.11-.28-.22-.58-.32-.91a9.86,9.86,0,0,0-.33-1,2.17,2.17,0,0,0-1.28-1.32l-.85-.28a2.62,2.62,0,0,1-.6-.26.94.94,0,0,1-.48-.8,2.37,2.37,0,0,1,.33-1.28,5.78,5.78,0,0,0,1.66.17H173a6.25,6.25,0,0,1,1.91.19,1.4,1.4,0,0,1,1,1.42,1.55,1.55,0,0,1-.31,1.07,5.19,5.19,0,0,0-1.83-.21c-1.65,0-2.47.69-2.47,2.06a2.57,2.57,0,0,0,.14.73l.25.74c.07.18.14.34.19.48l7.53,20.73,7.79-22.26a3.32,3.32,0,0,0,.12-.83,1.1,1.1,0,0,0-.17-.63,1.56,1.56,0,0,0-.44-.45,3,3,0,0,0-1-.37c-.51-.1-.92-.2-1.25-.28a3.44,3.44,0,0,1-.83-.31,1.41,1.41,0,0,1-.71-1.26,2,2,0,0,1,.21-1,7.9,7.9,0,0,0,2.07.17h7.28c1.87,0,2.81.54,2.81,1.61A1.56,1.56,0,0,1,194.92,303Z"/><path d="M210.81,332.67a8.15,8.15,0,0,0-2.08-.16H200a3.76,3.76,0,0,1-1.74-.35,1.31,1.31,0,0,1-.65-1.27,1.68,1.68,0,0,1,.32-1.07,6.37,6.37,0,0,0,1.54.21,3.3,3.3,0,0,0,1.11-.15,1.47,1.47,0,0,0,.7-.52,4.28,4.28,0,0,0,.7-2.62V305.3c0-1.11-.31-1.8-.93-2.08a3.2,3.2,0,0,0-.79-.25l-1-.22a4,4,0,0,1-.83-.28,1.17,1.17,0,0,1-.67-1.14,1.77,1.77,0,0,1,.31-1.15,8,8,0,0,0,2.08.17h8.54a3.78,3.78,0,0,1,1.75.34,1.32,1.32,0,0,1,.66,1.27,1.56,1.56,0,0,1-.33,1.07,6.94,6.94,0,0,0-1.75-.21c-1.35,0-2.05,1.11-2.09,3.32v21.42c0,1.1.3,1.8.92,2.09a3.76,3.76,0,0,0,.8.23l1,.22a4,4,0,0,1,.83.29,1.19,1.19,0,0,1,.69,1.13A1.79,1.79,0,0,1,210.81,332.67Z"/><path d="M218.29,332.51c-1.88,0-2.81-.54-2.81-1.62a1.34,1.34,0,0,1,.33-1,4.47,4.47,0,0,0,1.27.17,3.42,3.42,0,0,0,1.16-.17,2.85,2.85,0,0,0,.87-.48,2.28,2.28,0,0,0,.75-1.82V304.71a2.31,2.31,0,0,0-.35-1.26,1.68,1.68,0,0,0-.95-.59c-.42-.12-.76-.21-1-.27a3.79,3.79,0,0,1-.74-.21c-.49-.21-.74-.46-.74-.77a2.26,2.26,0,0,1,.32-1.37,6.17,6.17,0,0,0,1.34.11h4.09a4.2,4.2,0,0,1,3.32,1.87l17.64,22.36V305a3,3,0,0,0-.35-1.41,1.65,1.65,0,0,0-1.09-.76c-.51-.12-1-.22-1.35-.28a5.76,5.76,0,0,1-1.05-.26c-.66-.22-1-.59-1-1.09a1.35,1.35,0,0,1,.34-1,6.17,6.17,0,0,0,1.34.11h8.46c1.87,0,2.81.4,2.81,1.19a2.14,2.14,0,0,1-.32,1.37,4.38,4.38,0,0,0-1.2-.15c-.46,0-.85,0-1.19,0a2,2,0,0,0-.9.26,2.11,2.11,0,0,0-.92,2v26.89c0,.41-.12.65-.34.74a3.66,3.66,0,0,1-1.22.14c-1,0-2.05-.73-3.19-2.2l-18.14-22.83v20.08a2.19,2.19,0,0,0,1.7,2.22c.4.09.81.16,1.2.21a9.93,9.93,0,0,1,1.06.21c.72.18,1.07.51,1.07,1a1.81,1.81,0,0,1-.31,1.15,6.31,6.31,0,0,0-1.34-.1Z"/><path d="M284.67,317.24a3.72,3.72,0,0,1,.26,1.23,1.33,1.33,0,0,1-.16.74,1,1,0,0,1-.41.31,2.76,2.76,0,0,1-.59.17,2.69,2.69,0,0,0-.82.34c-.61.35-.92,1.27-.92,2.76v4.89a6.32,6.32,0,0,1-1.15,1.47,10.63,10.63,0,0,1-2.39,1.74,16.44,16.44,0,0,1-8.11,2.06,19.86,19.86,0,0,1-7.31-1.16,13.32,13.32,0,0,1-4.85-3.21q-3.92-4.12-3.92-11a19.75,19.75,0,0,1,1.35-7.53,16,16,0,0,1,3.66-5.52A16.32,16.32,0,0,1,271.14,300c3.79,0,6.63.69,8.5,2.06a4.94,4.94,0,0,1,2.22,4.13,3.46,3.46,0,0,1-.9,2.49,2.92,2.92,0,0,1-2.24.91,3.41,3.41,0,0,1-1.72-.32,11.09,11.09,0,0,0,.1-1.66,4.47,4.47,0,0,0-.43-1.91,3.4,3.4,0,0,0-1.27-1.48,7.87,7.87,0,0,0-4.36-1,14.37,14.37,0,0,0-5,.76,8.66,8.66,0,0,0-3.5,2.33q-3,3.22-2.95,9.52,0,13.83,11.79,13.82a12,12,0,0,0,4.8-.86,3.29,3.29,0,0,0,1-.61l0-6c0-1-.65-1.7-2-2.08-.32-.09-.65-.16-1-.23l-1-.22a3.2,3.2,0,0,1-.83-.31,1.14,1.14,0,0,1-.67-1.12,1.71,1.71,0,0,1,.32-1.14,7.9,7.9,0,0,0,2.07.17Z"/></svg>