# Wavefront OBJ
# Created by fragMOTION
# http://www.fragmosoft.com

mtllib books04.mtl
# 104 vertices
v 7.37845 5.07919 10.9311
v -7.92438 5.0787 -9.178
v 7.37845 5.0787 -9.178
v -7.92438 5.0787 10.9311
v 7.37845 7.50666 10.9311
v -7.92438 7.50666 -9.178
v -7.92438 7.50666 10.9311
v 7.37845 7.50657 -9.178
v 7.15025 5.30739 10.8509
v 7.15025 7.27845 10.8509
v 7.15025 7.27837 -9.09786
v 7.15025 5.3069 -9.09786
v -7.84424 7.27718 -9.09786
v -7.84424 5.3027 -9.09786
v -7.84424 7.28901 10.8509
v -7.84424 5.31656 10.8509
v -5.89951 9.07831 10.8232
v 6.4609 9.07803 -8.71406
v -4.78928 9.07803 -9.32728
v 5.3625 9.07803 11.4371
v -5.88768 10.4319 10.8238
v 6.4609 10.4319 -8.71406
v 5.3625 10.4319 11.4371
v -4.78928 10.4318 -9.32728
v 7.08805 9.98788 -8.67987
v 7.08805 9.49113 -8.67987
v 5.98965 9.49293 11.4712
v 5.98965 9.98182 11.4712
v 5.26754 9.19882 11.3786
v 5.77962 9.53759 11.4065
v 5.77962 9.93988 11.4065
v 5.26234 10.3111 11.3783
v 6.36043 9.19882 -8.66627
v 6.35582 10.3111 -8.66652
v 6.87223 9.94549 -8.63837
v 6.87223 9.53594 -8.63837
v -4.71565 9.19821 -9.2347
v -4.71565 10.3104 -9.2347
v -5.80534 10.3212 10.7397
v -5.81502 9.21275 10.7392
v -11.7496 2.77558 8.10395
v 10.9078 2.7751 -9.73107
v -4.1928 2.7751 -14.7193
v 3.36687 2.7751 13.0974
v -11.7338 5.08575 8.10919
v 10.9078 5.08575 -9.73107
v 3.36687 5.08575 13.0974
v -4.1928 5.08568 -14.7193
v 11.7496 4.32797 -9.453
v 11.7496 3.48016 -9.453
v 4.20867 3.48323 13.3755
v 4.20867 4.31764 13.3755
v 3.2554 2.98125 12.9939
v 3.94275 3.55945 13.2209
v 3.94275 4.24606 13.2209
v 3.24842 4.87961 12.9915
v 10.757 2.98125 -9.71417
v 10.7508 4.87961 -9.71621
v 11.444 4.25562 -9.48724
v 11.444 3.55663 -9.48724
v -4.12055 2.98022 -14.5845
v -4.12055 4.87851 -14.5845
v -11.5966 4.89689 8.04353
v -11.6096 3.00502 8.03924
v -10.8783 0.000575661 14.7193
v 8.48901 0 -14.5286
v -10.8579 0 -14.5286
v 8.48901 8.32667e-016 14.7193
v -10.8579 2.81101 14.7193
v 8.48901 2.81101 -14.5286
v 8.48901 2.81101 14.7193
v -10.8579 2.81091 -14.5286
v 9.56752 1.88913 -14.5286
v 9.56752 0.857727 -14.5286
v 9.56752 0.861467 14.7193
v 9.56752 1.87656 14.7193
v 8.32074 0.250791 14.6422
v 9.20136 0.954193 14.6422
v 9.20136 1.78948 14.6422
v 8.31179 2.56022 14.6422
v 8.32121 0.250786 -14.4515
v 8.31328 2.56022 -14.4515
v 9.20136 1.80112 -14.4515
v 9.20136 0.950761 -14.4515
v -10.723 0.249532 -14.4004
v -10.723 2.55889 -14.4004
v -10.7246 2.58125 14.5911
v -10.7412 0.279704 14.5911
v 7.32009 7.45658 11.6711
v -7.87556 7.45624 -4.42551
v 5.45431 7.45624 -5.84535
v -6.00978 7.45624 13.091
v 7.32009 9.11522 11.6711
v -7.87556 9.11522 -4.42551
v -6.00978 9.11522 13.091
v 5.45431 9.11516 -5.84535
v 7.11387 7.61251 11.6225
v 7.11387 8.95929 11.6225
v 5.26296 8.95924 -5.75438
v 5.26296 7.61217 -5.75438
v -7.79832 8.95843 -4.36314
v -7.79832 7.6093 -4.36314
v -5.94741 8.96651 13.0137
v -5.94741 7.61877 13.0137
# 276 texture vertices
vt 0.813539 0.78019
vt 0.674619 0.78019
vt 0.674619 0.999398
vt 0.813539 0.999398
vt 0.857735 0.781185
vt 0.857735 0.999335
vt 0.999427 0.781185
vt 0.999427 0.999335
vt 0.393734 0.0392161
vt 0.393734 0.0857353
vt 0.709855 0.0860138
vt 0.709855 0.0395424
vt 0.472139 0.339669
vt 0.472139 0.556905
vt 0.328881 0.339669
vt 0.328881 0.556905
vt 0.505955 0.340299
vt 0.646579 0.340299
vt 0.646579 0.556525
vt 0.505955 0.556525
vt 0.656213 0.0531529
vt 0.647039 0.0388717
vt 0.656198 0.0701115
vt 0.646917 0.0857446
vt 0.448655 0.0860288
vt 0.656122 0.0390021
vt 0.457767 0.0390276
vt 0.45786 0.0858984
vt 0.448599 0.0704961
vt 0.448588 0.0532303
vt 0.656117 0.0858882
vt 0.448498 0.0393038
vt 0.842296 0.156018
vt 0.842296 0.336008
vt 0.716187 0.156018
vt 0.716187 0.336008
vt 0.887599 0.156633
vt 0.998023 0.156633
vt 0.998023 0.335471
vt 0.887599 0.335471
vt 0.656182 0.0533404
vt 0.646993 0.0396197
vt 0.656167 0.0696334
vt 0.646871 0.0846531
vt 0.448279 0.0849261
vt 0.656091 0.0397449
vt 0.457406 0.0397694
vt 0.4575 0.0848008
vt 0.448223 0.0700029
vt 0.448212 0.0534147
vt 0.656086 0.084791
vt 0.448122 0.0400348
vt 0.837564 0.00210356
vt 0.837564 0.15267
vt 0.716187 0.00210356
vt 0.716187 0.15267
vt 0.872998 0.00182315
vt 0.998128 0.00182315
vt 0.998128 0.152064
vt 0.872998 0.152064
vt 0.0070728 0.0928471
vt 0.384101 0.0934855
vt 0.0070728 0.0268825
vt 0.384101 0.0277434
vt 0.476791 0.780276
vt 0.476798 0.999734
vt 0.526188 0.999734
vt 0.329583 0.999116
vt 0.329583 0.779911
vt 0.327715 0.780541
vt 0.672966 0.779637
vt 0.670275 0.778768
vt 0.672899 0.996044
vt 0.670332 0.996914
vt 0.526187 0.780276
vt 0.341112 0.0947983
vt 0.341112 0.025414
vt 0.0494866 0.0951703
vt 0.0494866 0.0256667
vt 0.0494866 0.0950654
vt 0.341112 0.0255189
vt 0.341112 0.0950237
vt 0.327612 0.998486
vt 0.816572 0.780276
vt 0.816577 0.999734
vt 0.855406 0.999734
vt 0.676545 0.999116
vt 0.676545 0.779911
vt 0.674677 0.780541
vt 0.999324 0.779637
vt 0.996633 0.778768
vt 0.999257 0.996044
vt 0.99669 0.996914
vt 0.855405 0.780276
vt 0.6706 0.0857098
vt 0.6706 0.0392712
vt 0.432989 0.0859587
vt 0.432989 0.0394403
vt 0.6706 0.0858606
vt 0.674574 0.998486
vt 0.328881 0.557993
vt 0.504719 0.557632
vt 0.504719 0.55547
vt 0.494334 0.557632
vt 0.473297 0.338585
vt 0.494334 0.341053
vt 0.504719 0.341053
vt 0.504719 0.338871
vt 0.484487 0.55547
vt 0.4736 0.55547
vt 0.4736 0.557632
vt 0.648078 0.338795
vt 0.505955 0.558103
vt 0.494334 0.55547
vt 0.484487 0.341053
vt 0.484487 0.338871
vt 0.4736 0.341053
vt 0.494334 0.338871
vt 0.4736 0.338871
vt 0.64807 0.558103
vt 0.484487 0.557632
vt 0.328881 0.338585
vt 0.505955 0.338795
vt 0.393826 0.085662
vt 0.710885 0.0861157
vt 0.393826 0.0387849
vt 0.473297 0.557993
vt 0.710885 0.0393967
vt 0.716766 0.336552
vt 0.715608 0.336552
vt 0.716766 0.155477
vt 0.873083 0.334853
vt 0.887251 0.334853
vt 0.873083 0.157134
vt 0.715608 0.155477
vt 0.887251 0.157134
vt 0.887638 0.334425
vt 0.887795 0.156612
vt 0.889216 0.156612
vt 0.844797 0.157134
vt 0.844797 0.334853
vt 0.85965 0.334853
vt 0.85965 0.157134
vt 0.889208 0.334425
vt 0.716766 0.153214
vt 0.715608 0.153214
vt 0.716766 0.00156195
vt 0.861155 0.151422
vt 0.872346 0.151422
vt 0.861155 0.00272419
vt 0.715608 0.00156195
vt 0.872346 0.00272419
vt 0.873037 0.151018
vt 0.873194 0.00180242
vt 0.874615 0.00180242
vt 0.838813 0.00272419
vt 0.838813 0.151422
vt 0.850544 0.151422
vt 0.850544 0.00272419
vt 0.319088 0.047101
vt 0.308179 0.0270047
vt 0.31907 0.0709647
vt 0.308035 0.0929634
vt 0.0722727 0.0933633
vt 0.318981 0.0271882
vt 0.0831083 0.027224
vt 0.0832193 0.0931798
vt 0.0722064 0.0715059
vt 0.0721935 0.0472098
vt 0.874607 0.151018
vt 0.318974 0.0931654
vt 0.0720859 0.0276127
vt 0.475141 0.78019
vt 0.327657 0.78019
vt 0.327657 0.999398
vt 0.475141 0.999398
vt 0.527451 0.781185
vt 0.527451 0.999335
vt 0.673068 0.781185
vt 0.673068 0.999335
vt 0.00130876 0.0253317
vt 0.00130876 0.0948364
vt 0.38929 0.0952526
vt 0.38929 0.0258193
vt 0.854801 0.819229
vt 0.854801 0.780401
vt 0.852001 0.783043
vt 0.674693 0.782171
vt 0.813612 0.782171
vt 0.675322 0.780303
vt 0.81377 0.999098
vt 0.674858 0.999358
vt 0.811982 0.997203
vt 0.999427 0.996854
vt 0.857737 0.996854
vt 0.99854 0.99937
vt 0.857913 0.784112
vt 0.999582 0.784113
vt 0.860416 0.781488
vt 0.816886 0.78022
vt 0.816886 0.819054
vt 0.819687 0.816412
vt 0.675476 0.997387
vt 0.852001 0.816587
vt 0.819687 0.782863
vt 0.998717 0.781476
vt 0.811821 0.780272
vt 0.860263 0.999478
vt 0.32946 0.557449
vt 0.328302 0.557449
vt 0.32946 0.339127
vt 0.328302 0.339127
vt 0.505994 0.555479
vt 0.506151 0.340278
vt 0.507572 0.340278
vt 0.507564 0.555479
vt 0.716187 0.337096
vt 0.887251 0.337015
vt 0.873083 0.337015
vt 0.843454 0.154935
vt 0.887251 0.154952
vt 0.844797 0.337015
vt 0.999522 0.155128
vt 0.887599 0.337049
vt 0.85965 0.154952
vt 0.873083 0.154952
vt 0.844797 0.154952
vt 0.999514 0.337049
vt 0.85965 0.337015
vt 0.716187 0.154935
vt 0.887599 0.155128
vt 0.393359 0.0845737
vt 0.710945 0.0850096
vt 0.393359 0.0395362
vt 0.843454 0.337096
vt 0.710945 0.040124
vt 0.716187 0.153759
vt 0.872346 0.153585
vt 0.861155 0.153585
vt 0.838723 0.00102034
vt 0.872346 0.000542141
vt 0.838813 0.153585
vt 0.999627 0.000318858
vt 0.872998 0.153642
vt 0.850544 0.000542141
vt 0.861155 0.000542141
vt 0.838813 0.000542141
vt 0.999619 0.153642
vt 0.850544 0.153585
vt 0.716187 0.00102034
vt 0.872998 0.000318858
vt 0.838723 0.153759
vt 0.525418 0.819229
vt 0.525418 0.780401
vt 0.521856 0.783043
vt 0.327731 0.782171
vt 0.475214 0.782171
vt 0.32836 0.780303
vt 0.475372 0.999098
vt 0.327897 0.999358
vt 0.473583 0.997203
vt 0.673068 0.996854
vt 0.527454 0.996854
vt 0.672181 0.99937
vt 0.527629 0.784112
vt 0.673223 0.784113
vt 0.530132 0.781488
vt 0.477191 0.78022
vt 0.477191 0.819054
vt 0.480753 0.816412
vt 0.328514 0.997387
vt 0.521856 0.816587
vt 0.480753 0.782863
vt 0.672359 0.781476
vt 0.473423 0.780272
vt 0.52998 0.999478
# 268 normals
vn -0.170406 0.170401 0.970528
vn 1 0 0
vn 3.25e-005 -1 2.47322e-005
vn 0 0.33683 -0.941566
vn -0.941565 0.336832 0
vn 0 -1 0
vn -0.170465 0.171838 -0.970264
vn 1 0 0
vn 1.625e-005 -1 1.23661e-005
vn 9.22284e-005 0.325266 0.945623
vn -0.944668 0.328027 -0.000110887
vn 1.625e-005 -1 1.23661e-005
vn -0.170568 -0.174108 0.969842
vn 1 0 0
vn 2.69535e-006 1 -2.05113e-006
vn 1.21492e-005 -0.330499 -0.943806
vn -0.941295 -0.337586 9.7744e-005
vn 2.69535e-006 1 -2.05113e-006
vn 0 -0.345518 0.938412
vn -0.938412 -0.345519 0
vn 0 1 0
vn -0.170402 -0.170401 -0.970529
vn 1 0 0
vn 5.39069e-006 1 -4.10227e-006
vn -0.170267 0.1672 0.971109
vn 0 0 1
vn -0.170514 -0.170288 0.970529
vn 0 0 1
vn -0.170383 -0.169968 -0.970608
vn 0 0 -1
vn -0.170446 0.170356 -0.970529
vn 0 0 -1
vn 2.60844e-005 -0.329679 -0.944093
vn -0.667652 -0.233105 -0.707038
vn -1 0 0
vn -4.63795e-005 0.334034 -0.942561
vn -0.66793 0.231932 -0.707161
vn -1 0 0
vn -0.000116629 -0.338324 0.94103
vn -0.665551 -0.238693 0.707154
vn -1 0 0
vn 0.000195221 0.3192 0.947687
vn -0.670192 0.225729 0.707028
vn -1 0 0
vn -0.847423 0.528847 -0.0468552
vn -0.0487723 0.478403 0.876785
vn -1.26588e-005 -1 6.19595e-006
vn 0.549529 -0.834936 0.0299911
vn -0.0414111 0.389905 -0.919923
vn -1.26588e-005 -1 6.19595e-006
vn -0.835582 0.547433 -0.0460453
vn 0.0438368 0.592706 -0.804225
vn -7.48458e-007 -1 1.37311e-005
vn 0.550364 -0.834386 0.0299993
vn -0.14095 0.33922 0.930088
vn -2.45691e-005 -1 -1.33921e-006
vn -0.817368 -0.57439 -0.044552
vn -0.0425171 -0.624317 0.780013
vn 1.23457e-007 1 -2.26493e-006
vn 0.576388 0.816572 0.0314178
vn -0.0416958 -0.334302 -0.941543
vn -4.05689e-006 1 -2.21134e-007
vn 0.578985 0.814722 0.0316815
vn -0.144928 -0.392734 0.908161
vn -1.96672e-006 1 -1.24303e-006
vn -0.828005 -0.558912 -0.0450052
vn 0.0458829 -0.499397 -0.865157
vn -1.96672e-006 1 -1.24303e-006
vn 0.887457 0.458337 0.0484423
vn -0.162198 -0.131668 -0.977934
vn 0.878895 -0.474599 0.0479494
vn -0.159502 0.137241 -0.977611
vn 0.879133 -0.474159 0.0479411
vn -0.264986 0.13691 0.954483
vn 0.888183 0.456917 0.0485504
vn -0.268026 -0.13061 0.954517
vn -0.141109 0.378352 0.914843
vn -0.0560143 2.93746e-006 0.99843
vn -0.264986 0.136908 0.954484
vn -0.0544285 0 0.998518
vn -0.268026 -0.13061 0.954517
vn -0.0544283 -1.48123e-007 0.998518
vn -0.145982 -0.332043 0.931899
vn -0.0560152 -7.74196e-006 0.99843
vn -0.0402899 0.338455 -0.94012
vn 0.0528405 -6.19812e-006 -0.998603
vn -0.0441718 -0.384519 -0.92206
vn 0.05284 -3.09906e-006 -0.998603
vn -0.162198 -0.131667 -0.977934
vn 0.0544271 0 -0.998518
vn -0.159502 0.137241 -0.977611
vn 0.0544273 1.87993e-007 -0.998518
vn -0.847423 0.528847 -0.0468552
vn -0.6747 0.354825 -0.647208
vn 0.0512526 -6.3861e-006 -0.998686
vn -0.838349 -0.543237 -0.0454425
vn -0.675903 -0.416624 -0.607931
vn 0.0512519 0 -0.998686
vn -0.828005 -0.558912 -0.0450052
vn -0.743354 -0.360991 0.563126
vn -0.0576001 6.02304e-006 0.99834
vn -0.858851 0.510004 -0.0476424
vn -0.737198 0.394142 0.548809
vn -0.057598 2.72337e-005 0.99834
vn -0.29388 0.356705 0.88679
vn -0.843765 0.458138 -0.279587
vn -1.71923e-005 -1 4.68122e-006
vn 0.22476 0.287108 -0.931156
vn 0.591804 -0.782004 0.195544
vn -1.71923e-005 -1 4.68122e-006
vn 0.279006 0.456906 -0.844626
vn -0.834957 0.475828 -0.276466
vn -6.1713e-006 -1 1.86821e-005
vn -0.376958 0.244875 0.893274
vn 0.592607 -0.781343 0.195757
vn -2.82132e-005 -1 -9.3197e-006
vn -0.273922 -0.487173 0.829234
vn -0.821269 -0.501915 -0.271289
vn 1.02025e-006 1 -3.08858e-006
vn 0.227382 -0.241201 -0.943461
vn 0.616963 0.760146 0.203802
vn -4.66918e-006 1 -1.54238e-006
vn -0.376656 -0.290585 0.879597
vn 0.619324 0.757967 0.204753
vn -1.82446e-006 1 -2.31548e-006
vn 0.289588 -0.375472 -0.880432
vn -0.829411 -0.486933 -0.273813
vn -1.82446e-006 1 -2.31548e-006
vn 0.132696 -0.0936142 -0.986726
vn 0.863029 0.416956 0.28518
vn 0.134895 0.09766 -0.986035
vn 0.855208 -0.434486 0.282561
vn -0.479128 0.0974185 0.872322
vn 0.855436 -0.434008 0.282606
vn -0.481567 -0.0928479 0.871477
vn 0.863662 0.415436 0.285483
vn -0.374885 0.276975 0.88473
vn -0.314934 2.03588e-006 0.949113
vn -0.479128 0.0974181 0.872322
vn -0.313661 0 0.949535
vn -0.481567 -0.0928479 0.871477
vn -0.313661 -1.6324e-007 0.949535
vn -0.381212 -0.239482 0.892931
vn -0.314935 -5.52488e-006 0.949113
vn 0.228241 0.244277 -0.942462
vn 0.312812 -3.00984e-006 -0.949815
vn 0.222831 -0.282961 -0.932888
vn 0.311962 -3.00984e-006 -0.950095
vn 0.132696 -0.0936142 -0.986726
vn 0.313661 4.45567e-008 -0.949535
vn 0.134895 0.09766 -0.986035
vn 0.313661 0 -0.949535
vn -0.467738 0.267545 -0.842402
vn -0.843765 0.458138 -0.279587
vn 0.311112 -4.55932e-006 -0.950373
vn -0.474844 -0.320869 -0.819492
vn -0.837306 -0.471806 -0.276256
vn 0.311111 0 -0.950373
vn -0.877819 -0.273708 0.393088
vn -0.829411 -0.486933 -0.273813
vn -0.316207 4.23499e-006 0.94869
vn -0.872106 0.30007 0.386509
vn -0.852236 0.440265 -0.282597
vn -0.316205 1.91932e-005 0.948691
vn -0.000897983 0.356705 0.934216
vn -0.888881 0.458137 -0.000821797
vn -1.48617e-005 -1 9.84109e-006
vn -0.0786502 0.28711 -0.954663
vn 0.623273 -0.782004 5.00361e-005
vn -1.48617e-005 -1 9.84109e-006
vn 0 0.456906 -0.889515
vn -0.879538 0.475828 -0.000620739
vn 0 -1 1.96822e-005
vn -0.0777494 0.244876 0.966432
vn 0.624102 -0.781343 2.22443e-017
vn -2.97234e-005 -1 0
vn 0 -0.487172 0.873306
vn -0.864917 -0.501915 1.63248e-006
vn 0 1 -3.25251e-006
vn -0.0800202 -0.241204 -0.96717
vn 0.649753 0.760146 0
vn -4.917e-006 1 0
vn -0.0817542 -0.290586 0.95335
vn 0.652293 0.757967 0.000162327
vn -2.4585e-006 1 -1.62626e-006
vn -0.00118325 -0.375473 -0.926833
vn -0.873439 -0.486933 0.000158821
vn -2.4585e-006 1 -1.62626e-006
vn -0.1835 -0.0936151 -0.978552
vn 0.908926 0.416956 8.9296e-005
vn -0.181195 0.097661 -0.978586
vn 0.900679 -0.434486 5.55537e-005
vn -0.181337 0.0974192 0.978584
vn 0.900909 -0.434008 2.77698e-005
vn -0.183918 -0.0928487 0.978547
vn 0.909622 0.415436 0.000178455
vn -0.0784614 0.276976 0.957668
vn -0.001341 2.24705e-006 0.999999
vn -0.181337 0.0974192 0.978584
vn 0 0 1
vn -0.183918 -0.0928488 0.978547
vn 0 0 1
vn -0.0818978 -0.239485 0.96744
vn -0.00134191 -5.19893e-006 0.999999
vn -0.0788913 0.24428 -0.96649
vn -0.000894236 -3.06939e-006 -1
vn -0.0810257 -0.282962 -0.955703
vn -0.00178884 -3.06939e-006 -0.999998
vn -0.1835 -0.0936151 -0.978552
vn 0 0 -1
vn -0.181195 0.0976611 -0.978586
vn 0 0 -1
vn -0.00129756 0.376051 -0.926598
vn -0.629361 0.323398 -0.706625
vn -0.999993 0.00361691 -0.000345142
vn -0.00235906 -0.454322 -0.890834
vn -0.624715 -0.333276 -0.706157
vn -1 0 -5.42438e-005
vn -0.00145284 -0.391765 0.920064
vn -0.618693 -0.343855 0.706387
vn -0.999993 0.00361691 -0.000345142
vn -0.00180072 0.418029 0.908432
vn -0.636341 0.31111 0.70589
vn -0.999974 0.00723376 -0.000636036
vn -0.0689253 0.212821 0.974657
vn 2.72636e-005 -1 1.65054e-005
vn 0.994375 0 -0.105917
vn -0.0962744 0.416881 -0.903848
vn 0 -1 0
vn -0.903847 0.416883 0.0962743
vn -0.272719 0.214523 -0.937872
vn 1.36318e-005 -1 8.25272e-006
vn 0.994375 0 -0.105917
vn 0.0970013 0.403488 0.909829
vn 1.36318e-005 -1 8.25272e-006
vn -0.908442 0.406682 0.0966557
vn -0.0692477 -0.217205 0.973667
vn 1.91772e-006 1 -1.81038e-006
vn 0.994375 0 -0.105917
vn -0.0966144 -0.409564 -0.907151
vn 1.91772e-006 1 -1.81038e-006
vn -0.903447 -0.417737 0.0963267
vn 0.0957818 -0.426875 0.899224
vn 0 1 0
vn -0.899224 -0.426875 0.0957819
vn -0.272677 -0.21282 -0.938272
vn 3.83544e-006 1 -3.62076e-006
vn 0.994375 0 -0.105917
vn -0.0686506 0.209012 0.975501
vn 0.105917 0 0.994375
vn -0.069027 -0.212687 0.974679
vn 0.105917 0 0.994375
vn -0.272665 -0.212306 -0.938392
vn -0.105917 0 -0.994375
vn -0.27272 0.212766 -0.938272
vn -0.105917 0 -0.994375
vn -0.096646 -0.408616 -0.907575
vn -0.994375 0 0.105917
vn -0.716718 -0.28892 -0.634698
vn -0.0964752 0.41365 -0.90531
vn -0.994375 0 0.105917
vn -0.717204 0.287543 -0.634773
vn 0.096079 -0.418592 0.903078
vn -0.994375 0 0.105917
vn -0.563894 -0.295363 0.771222
vn 0.0974263 0.396438 0.912877
vn -0.994375 0 0.105917
vn -0.570701 0.280348 0.771819
usemtl books_D
g mesh
s 1
f 3/1/9 4/3/12 2/2/6
f 1/4/3 4/3/12 3/1/9
f 8/5/24 6/7/18 5/6/15
f 5/6/15 6/7/18 7/8/21
f 14/9/38 15/11/41 13/10/35
f 16/12/44 15/11/41 14/9/38
f 19/13/53 18/15/50 17/14/47
f 17/14/47 18/15/50 20/16/56
f 23/17/65 24/19/68 21/18/59
f 22/20/62 24/19/68 23/17/65
f 30/21/80 31/23/82 29/22/78
f 32/24/84 29/22/78 31/23/82
f 39/25/101 29/22/78 32/24/84
f 37/26/95 34/28/88 33/27/86
f 35/29/90 36/30/92 34/28/88
f 33/27/86 34/28/88 36/30/92
f 34/28/88 37/26/95 38/31/98
f 29/22/78 39/25/101 40/32/104
f 43/33/113 42/35/110 41/34/107
f 41/34/107 42/35/110 44/36/116
f 47/37/125 48/39/128 45/38/119
f 46/40/122 48/39/128 47/37/125
f 54/41/140 55/43/142 53/42/138
f 56/44/144 53/42/138 55/43/142
f 63/45/161 53/42/138 56/44/144
f 61/46/155 58/48/148 57/47/146
f 59/49/150 57/47/146 58/48/148
f 60/50/152 57/47/146 59/49/150
f 58/48/148 61/46/155 62/51/158
f 53/42/138 63/45/161 64/52/164
f 67/53/173 66/55/170 65/54/167
f 65/54/167 66/55/170 68/56/176
f 71/57/185 72/59/188 69/58/179
f 70/60/182 72/59/188 71/57/185
f 86/61/218 85/63/215 87/62/221
f 87/62/221 85/63/215 88/64/224
f 91/65/233 93/67/239 89/66/227
f 92/68/236 102/70/262 90/69/230
f 101/71/259 103/73/265 94/72/242
f 94/72/242 103/73/265 95/74/245
f 93/67/239 91/65/233 96/75/248
f 98/76/252 103/78/265 97/77/250
f 100/79/256 102/81/262 99/80/254
f 99/80/254 102/81/262 101/82/259
f 102/70/262 92/68/236 104/83/268
f 97/77/250 103/78/265 104/79/268
s 2
f 3/84/8 5/86/14 1/85/2
f 4/87/11 14/89/37 2/88/5
f 13/90/34 15/92/40 6/91/17
f 6/91/17 15/92/40 7/93/20
f 5/86/14 3/84/8 8/94/23
f 10/95/28 15/97/40 9/96/26
f 12/98/32 14/96/37 11/97/30
f 11/97/30 14/96/37 13/99/34
f 14/89/37 4/87/11 16/100/43
f 9/96/26 15/97/40 16/98/43
f 20/16/55 29/101/77 17/14/46
f 33/102/85 36/104/91 18/103/49
f 19/13/52 37/105/94 18/15/49
f 27/106/74 29/108/77 20/107/55
f 25/109/70 34/111/87 22/110/61
f 21/18/58 39/112/100 23/17/64
f 22/20/61 34/113/87 24/19/67
f 26/114/72 36/104/91 25/109/70
f 18/103/49 36/104/91 26/114/72
f 28/115/76 31/116/81 27/106/74
f 23/117/64 31/116/81 28/115/76
f 29/108/77 27/106/74 30/118/79
f 30/118/79 27/106/74 31/116/81
f 31/116/81 23/117/64 32/119/83
f 38/120/97 24/19/67 34/113/87
f 34/111/87 25/109/70 35/121/89
f 35/121/89 25/109/70 36/104/91
f 33/122/85 18/15/49 37/105/94
f 32/123/83 23/17/64 39/112/100
f 38/124/97 37/126/94 39/125/100
f 17/14/46 29/101/77 40/127/103
f 39/125/100 37/126/94 40/128/103
f 64/129/163 61/131/154 41/130/106
f 50/132/132 51/134/134 42/133/109
f 41/130/106 61/131/154 43/135/112
f 42/133/109 51/134/134 44/136/115
f 48/137/127 63/139/160 45/138/118
f 47/140/124 49/142/130 46/141/121
f 52/143/136 49/142/130 47/140/124
f 52/143/136 51/134/134 49/142/130
f 49/142/130 51/134/134 50/132/132
f 63/139/160 48/137/127 62/144/157
f 88/145/223 85/147/214 65/146/166
f 74/148/192 75/150/194 66/149/169
f 65/146/166 85/147/214 67/151/172
f 66/149/169 75/150/194 68/152/175
f 72/153/187 87/155/220 69/154/178
f 71/156/184 73/158/190 70/157/181
f 76/159/196 73/158/190 71/156/184
f 76/159/196 75/150/194 73/158/190
f 73/158/190 75/150/194 74/148/192
f 78/160/200 79/162/202 77/161/198
f 80/163/204 77/161/198 79/162/202
f 87/164/220 77/161/198 80/163/204
f 85/165/214 82/167/208 81/166/206
f 83/168/210 81/166/206 82/167/208
f 84/169/212 81/166/206 83/168/210
f 87/155/220 72/153/187 86/170/217
f 82/167/208 85/165/214 86/171/217
f 77/161/198 87/164/220 88/172/223
f 91/173/232 92/175/235 90/174/229
f 89/176/226 92/175/235 91/173/232
f 96/177/247 94/179/241 93/178/238
f 93/178/238 94/179/241 95/180/244
f 102/181/261 103/183/264 101/182/258
f 104/184/267 103/183/264 102/181/261
s 3
f 5/185/13 9/187/25 1/186/1
f 2/188/4 14/190/36 3/189/7
f 1/191/1 9/193/25 4/192/10
f 7/194/19 15/196/39 5/195/13
f 8/197/22 11/199/29 6/198/16
f 3/200/7 11/202/29 8/201/22
f 16/203/42 4/192/10 9/193/25
f 9/187/25 5/185/13 10/204/27
f 11/202/29 3/200/7 12/205/31
f 6/198/16 11/199/29 13/206/33
f 12/207/31 3/189/7 14/190/36
f 10/208/27 5/195/13 15/196/39
f 40/209/102 37/211/93 17/210/45
f 26/114/71 27/106/73 18/103/48
f 17/210/45 37/211/93 19/212/51
f 18/103/48 27/106/73 20/107/54
f 24/213/66 39/215/99 21/214/57
f 23/117/63 25/109/69 22/110/60
f 28/115/75 25/109/69 23/117/63
f 28/115/75 27/106/73 25/109/69
f 25/109/69 27/106/73 26/114/71
f 39/215/99 24/213/66 38/216/96
f 44/36/114 53/217/137 41/34/105
f 57/218/145 60/219/151 42/133/108
f 43/33/111 61/220/153 42/35/108
f 51/134/133 53/221/137 44/136/114
f 49/142/129 58/222/147 46/141/120
f 45/38/117 63/223/159 47/37/123
f 46/40/120 58/224/147 48/39/126
f 50/132/131 60/219/151 49/142/129
f 42/133/108 60/219/151 50/132/131
f 52/143/135 55/225/141 51/134/133
f 47/140/123 55/225/141 52/143/135
f 53/221/137 51/134/133 54/226/139
f 54/226/139 51/134/133 55/225/141
f 55/225/141 47/140/123 56/227/143
f 62/228/156 48/39/126 58/224/147
f 58/222/147 49/142/129 59/229/149
f 59/229/149 49/142/129 60/219/151
f 57/230/145 42/35/108 61/220/153
f 56/231/143 47/37/123 63/223/159
f 62/232/156 61/234/153 63/233/159
f 41/34/105 53/217/137 64/235/162
f 63/233/159 61/234/153 64/236/162
f 68/56/174 77/237/197 65/54/165
f 81/238/205 84/239/211 66/149/168
f 67/53/171 85/240/213 66/55/168
f 75/150/193 77/241/197 68/152/174
f 73/158/189 82/242/207 70/157/180
f 69/58/177 87/243/219 71/57/183
f 70/60/180 82/244/207 72/59/186
f 74/148/191 84/239/211 73/158/189
f 66/149/168 84/239/211 74/148/191
f 76/159/195 79/245/201 75/150/193
f 71/156/183 79/245/201 76/159/195
f 77/241/197 75/150/193 78/246/199
f 78/246/199 75/150/193 79/245/201
f 79/245/201 71/156/183 80/247/203
f 86/248/216 72/59/186 82/244/207
f 82/242/207 73/158/189 83/249/209
f 83/249/209 73/158/189 84/239/211
f 81/250/205 66/55/168 85/240/213
f 80/251/203 71/57/183 87/243/219
f 65/54/165 77/237/197 88/252/222
f 93/253/237 97/255/249 89/254/225
f 90/256/228 102/258/260 91/257/231
f 89/259/225 97/261/249 92/260/234
f 95/262/243 103/264/263 93/263/237
f 96/265/246 99/267/253 94/266/240
f 91/268/231 99/270/253 96/269/246
f 104/271/266 92/260/234 97/261/249
f 97/255/249 93/253/237 98/272/251
f 99/270/253 91/268/231 100/273/255
f 94/266/240 99/267/253 101/274/257
f 100/275/255 91/257/231 102/258/260
f 98/276/251 93/263/237 103/264/263
