# Wavefront OBJ
# Created by fragMOTION
# http://www.fragmosoft.com

mtllib books02.mtl
# 96 vertices
v -1.55049 20.3491 8.03128
v -1.55013 0 -4.16011
v -1.55013 0 8.01848
v -1.55013 20.3491 -4.16011
v -3.29755 20.3491 8.01848
v -3.29755 0 -4.16011
v -3.29755 20.3491 -4.16011
v -3.29749 0 8.01848
v -2.72447 0 -4.83902
v -2.08332 0 -4.83902
v -2.08565 20.3491 -4.83902
v -2.71666 20.3491 -4.83902
v -7.93919 19.2958 1.73693
v -1.15501 22.2065 -3.45394
v -1.15501 22.2065 1.73148
v -7.93926 19.2959 -3.45394
v -7.59417 18.4915 1.73148
v -0.809924 21.4021 -3.45394
v -7.59417 18.4915 -3.45394
v -0.809936 21.4021 1.73148
v -2.4547 24.0883 3.40071
v 7.80073 20.3356 -4.27808
v 7.80073 20.3356 3.39265
v -2.45461 24.0885 -4.27808
v -2.89957 22.8726 3.39265
v 7.35576 19.1197 -4.27808
v -2.89957 22.8726 -4.27808
v 7.35578 19.1197 3.39265
v 8.04045 17.2247 5.65737
v 8.04071 0 -6.53119
v 8.04071 0 5.64458
v 8.04071 17.2247 -6.53119
v 6.74592 17.2247 5.64458
v 6.74592 0 -6.53119
v 6.74592 17.2247 -6.53119
v 6.74597 0 5.64458
v 6.76851 19.3316 4.83902
v 6.76904 0 -7.35238
v 6.76904 0 4.82622
v 6.76904 19.3316 -7.35238
v 4.18287 19.3316 4.82622
v 4.18287 0 -7.35238
v 4.18287 19.3316 -7.35238
v 4.18295 0 4.82622
v 5.03101 0 -8.03128
v 5.97992 0 -8.03128
v 5.97648 19.3316 -8.03128
v 5.04257 19.3316 -8.03128
v 4.21817 18.9217 6.13794
v 4.21875 0 -6.05062
v 4.21875 0 6.12515
v 4.21875 18.9217 -6.05062
v 1.39352 18.9217 6.12515
v 1.39352 0 -6.05062
v 1.39352 18.9217 -6.05062
v 1.39362 0 6.12515
v 1.47635 21.2127 5.65737
v 1.47661 0 -6.53119
v 1.47661 0 5.64458
v 1.47661 21.2127 -6.53119
v 0.181821 21.2127 5.64458
v 0.181821 0 -6.53119
v 0.181821 21.2127 -6.53119
v 0.181865 0 5.64458
v 0.213297 20.3491 6.09724
v 0.213655 0 -6.09416
v 0.213655 0 6.08444
v 0.213655 20.3491 -6.09416
v -1.53376 20.3491 6.08444
v -1.53376 0 -6.09416
v -1.53376 20.3491 -6.09416
v -1.5337 0 6.08444
v -0.960687 0 -6.77306
v -0.319536 0 -6.77306
v -0.32186 20.3491 -6.77306
v -0.952877 20.3491 -6.77306
v -5.86138 18.4779 7.70763
v -5.86093 0 -4.48094
v -5.86093 0 7.69483
v -5.86093 18.4779 -4.48094
v -8.04071 18.4779 7.69483
v -8.04071 0 -4.48094
v -8.04071 18.4779 -4.48094
v -8.04064 0 7.69483
v -3.27101 16.7676 7.68182
v -3.27048 0 -5.50927
v -3.27048 0 7.66797
v -3.27048 16.7676 -5.50927
v -5.85316 16.7676 7.66797
v -5.85316 0 -5.50927
v -5.85316 16.7676 -5.50927
v -5.85307 0 7.66797
v -5.00615 0 -6.24385
v -4.05853 0 -6.24385
v -4.06197 16.7676 -6.24385
v -4.99461 16.7676 -6.24385
# 163 texture vertices
vt 0.976754 0.338606
vt 0.845721 0.338661
vt 0.976823 0.557829
vt 0.845634 0.557884
vt 0.7815 0.557608
vt 0.781428 0.338993
vt 0.648959 0.339047
vt 0.649031 0.557662
vt 0.00165659 0.0941219
vt 0.389069 0.0941355
vt 0.389069 0.0260057
vt 0.473852 0.33865
vt 0.473937 0.557948
vt 0.505067 0.557933
vt 0.00165669 0.0260034
vt 0.505012 0.338633
vt 0.18773 0.779657
vt 0.282807 0.779602
vt 0.282738 0.560536
vt 0.187816 0.560591
vt 0.00039278 0.560415
vt 0.000464877 0.778779
vt 0.129877 0.560361
vt 0.129949 0.778726
vt 0.393418 0.0849206
vt 0.710753 0.0849297
vt 0.710753 0.0394691
vt 0.144077 0.338543
vt 0.144163 0.557921
vt 0.18546 0.557906
vt 0.393418 0.0394675
vt 0.185405 0.338526
vt 0.999898 0.000596135
vt 0.871676 0.000650648
vt 0.999967 0.153236
vt 0.871589 0.15329
vt 0.839603 0.15372
vt 0.839531 0.000983307
vt 0.715385 0.00103668
vt 0.715457 0.153773
vt 0.516565 0.117355
vt 0.516629 0.337009
vt 0.554688 0.336993
vt 0.554648 0.117338
vt 0.665484 0.0849204
vt 0.665259 0.0394675
vt 0.450649 0.0394675
vt 0.450762 0.0394675
vt 0.450762 0.0849297
vt 0.665372 0.0849281
vt 0.665372 0.0394675
vt 0.450649 0.0849297
vt 0.00184333 0.0950677
vt 0.389308 0.0950816
vt 0.00184343 0.0255966
vt 0.839982 0.000725184
vt 0.840039 0.153802
vt 0.850051 0.000719661
vt 0.389308 0.0255989
vt 0.850142 0.153796
vt 0.87129 0.000708205
vt 0.860639 0.000712755
vt 0.860561 0.153791
vt 0.871327 0.153786
vt 0.80956 0.780018
vt 0.809624 0.999348
vt 0.856882 0.999332
vt 0.856841 0.780001
vt 0.755838 0.559469
vt 0.755902 0.778798
vt 0.767129 0.559463
vt 0.76723 0.778792
vt 0.790944 0.559452
vt 0.779001 0.559456
vt 0.778913 0.778787
vt 0.790985 0.778782
vt 0.438799 0.0533394
vt 0.438799 0.0700202
vt 0.438686 0.0545802
vt 0.438686 0.0709973
vt 0.50539 0.55809
vt 0.647692 0.558035
vt 0.647623 0.338759
vt 0.505477 0.338814
vt 0.328868 0.339174
vt 0.328947 0.557539
vt 0.472098 0.339121
vt 0.472177 0.557485
vt 0.186092 0.557472
vt 0.32658 0.557418
vt 0.326511 0.338352
vt 0.186178 0.338406
vt 0.00039278 0.33823
vt 0.000464877 0.557894
vt 0.143558 0.338177
vt 0.14363 0.557841
vt 0.0718607 0.0255966
vt 0.0572532 0.0467986
vt 0.0572532 0.0722937
vt 0.333898 0.0255966
vt 0.0718607 0.0950816
vt 0.071723 0.0950816
vt 0.334036 0.0950674
vt 0.333761 0.0255966
vt 0.071723 0.0255966
vt 0.0571156 0.048695
vt 0.333898 0.0950793
vt 0.0571156 0.0737871
vt 0.857585 0.999536
vt 0.998617 0.999481
vt 0.998548 0.780073
vt 0.857671 0.780127
vt 0.674359 0.779927
vt 0.674431 0.999689
vt 0.809087 0.779874
vt 0.809159 0.999636
vt 0.781938 0.338735
vt 0.782052 0.558064
vt 0.802149 0.33873
vt 0.802331 0.558059
vt 0.844782 0.338718
vt 0.823401 0.338723
vt 0.823244 0.558054
vt 0.844854 0.558049
vt 0.333804 0.0941215
vt 0.333529 0.0260034
vt 0.0715269 0.0260034
vt 0.0716646 0.0260034
vt 0.0716646 0.0941355
vt 0.333667 0.0941332
vt 0.333667 0.0260034
vt 0.0715269 0.0941355
vt 0.156391 0.560058
vt 0.156476 0.779437
vt 0.18546 0.779422
vt 0.185405 0.560041
vt 0.475855 0.780871
vt 0.475942 0.999054
vt 0.49113 0.780865
vt 0.491267 0.999048
vt 0.523348 0.780854
vt 0.507191 0.780858
vt 0.507072 0.999043
vt 0.523403 0.999038
vt 0.555674 0.337147
vt 0.714038 0.337093
vt 0.713963 0.117685
vt 0.555769 0.117739
vt 0.355122 0.118229
vt 0.355194 0.337297
vt 0.514958 0.118175
vt 0.51503 0.337244
vt 0.473791 0.338267
vt 0.504674 0.557906
vt 0.504633 0.33825
vt 0.926967 0.558858
vt 0.791436 0.558912
vt 0.927036 0.778652
vt 0.79135 0.778707
vt 0.755437 0.778573
vt 0.755365 0.559133
vt 0.620637 0.559186
vt 0.62071 0.778627
# 272 normals
vn -0.00732487 -0.000629001 0.999973
vn 0 1 0
vn 1 1.75691e-005 2.9356e-005
vn 0.786451 0 -0.617653
vn 0 -1 0
vn 1 0 0
vn -0.00366246 -0.000314503 0.999993
vn 0 -1 0
vn 1 8.78454e-006 1.4678e-005
vn 0.785797 4.48471e-005 -0.618484
vn 0 1 0
vn 1 8.78454e-006 1.4678e-005
vn -0.00366246 -0.000314503 0.999993
vn 0 1 0
vn -1 -1.45401e-006 2.42949e-006
vn -0.761997 0.000146642 -0.647581
vn 0 -1 0
vn -1 -1.45401e-006 2.42949e-006
vn -0.75983 0 -0.650122
vn 0 1 0
vn -1 0 0
vn 0 0 1
vn 0 -1 0
vn -1 -2.90802e-006 4.85897e-006
vn -0.421288 0.00016169 -0.906927
vn 0 -1 0
vn 0.436758 2.49267e-005 -0.899579
vn 0 -1 0
vn 0.436283 4.98407e-005 -0.89981
vn 0 1 0
vn -0.419772 8.07826e-005 -0.907629
vn 0 1 0
vn -0.918998 -0.394263 -3.72333e-008
vn -0.394274 0.918993 1.73167e-005
vn 0.00156665 -0.00271563 0.999995
vn 0.918998 0.394263 -1.0701e-008
vn -0.394274 0.918993 1.73167e-005
vn 0 0 -1
vn 0.918998 0.394263 0
vn -0.394285 0.918988 0
vn 0.000678335 0.000291015 1
vn -0.918998 -0.394263 -7.44666e-008
vn -0.394263 0.918998 3.46333e-005
vn 0 0 -1
vn -0.918997 -0.394263 0
vn 0.394266 -0.918996 0
vn 0.00245495 -0.00572224 0.999981
vn 0.918998 0.394263 -2.1402e-008
vn 0.394263 -0.918998 5.77444e-006
vn 0 0 -1
vn -0.918998 -0.394263 -3.72333e-008
vn 0.394265 -0.918997 2.88722e-006
vn 0 0 -1
vn 0.918998 0.394263 -1.0701e-008
vn 0.394265 -0.918997 2.88722e-006
vn 0.00156665 -0.00271563 0.999995
vn -0.000723342 -0.00305061 0.999995
vn -0.939094 0.34366 1.05046e-008
vn 0.343648 0.939098 1.73078e-005
vn 0 0 -1
vn 0.939094 -0.34366 -3.4863e-008
vn 0.343648 0.939098 1.73078e-005
vn 0.000693184 -0.000253669 1
vn 0.939094 -0.343659 0
vn 0.343637 0.939103 0
vn 0 0 -1
vn -0.939094 0.34366 2.10092e-008
vn 0.34366 0.939094 3.46155e-005
vn -0.00213986 -0.00584752 0.999981
vn -0.939094 0.34366 0
vn -0.343656 -0.939096 0
vn 0 0 -1
vn 0.939094 -0.34366 -6.97261e-008
vn -0.34366 -0.939094 5.65207e-006
vn 0 0 -1
vn -0.939094 0.34366 1.05046e-008
vn -0.343658 -0.939095 2.82604e-006
vn -0.000723342 -0.00305061 0.999995
vn 0.939094 -0.34366 -3.4863e-008
vn -0.343658 -0.939095 2.82604e-006
vn 0 1 0
vn 1 7.69459e-006 1.08739e-005
vn -0.00494174 -0.000371428 0.999988
vn 0 -1 0
vn 1 7.69459e-006 1.08739e-005
vn 0 0 -1
vn 0 -1 0
vn 1 1.53892e-005 0
vn 0 -0.000742822 1
vn 0 1 0
vn 1 0 2.17477e-005
vn 0 0 -1
vn 0 1 0
vn -1 -2.54133e-006 0
vn -0.00988336 -2.51169e-008 0.999951
vn 0 -1 0
vn -1 0 3.59514e-006
vn 0 0 -1
vn 0 1 0
vn -1 -1.27067e-006 1.79757e-006
vn 0 0 -1
vn 0 -1 0
vn -1 -1.27067e-006 1.79757e-006
vn -0.00494174 -0.000371428 0.999988
vn -0.00494947 -0.000662137 0.999988
vn 0 1 0
vn 1 2.73741e-005 4.34521e-005
vn 0.652183 0 -0.758061
vn 0 -1 0
vn 1 0 0
vn -0.00247474 -0.000331069 0.999997
vn 0 -1 0
vn 1 1.36871e-005 2.17261e-005
vn 0.651368 5.78866e-005 -0.758762
vn 0 1 0
vn 1 1.36871e-005 2.17261e-005
vn -0.00247474 -0.000331069 0.999997
vn 0 1 0
vn -1 -2.26436e-006 3.59431e-006
vn -0.622336 0.000186824 -0.78275
vn 0 -1 0
vn -1 -2.26436e-006 3.59431e-006
vn -0.619752 0 -0.784798
vn 0 1 0
vn -1 0 0
vn 0 0 1
vn 0 -1 0
vn -1 -4.52871e-006 7.18862e-006
vn -0.331139 0.000197993 -0.943582
vn 0 -1 0
vn 0.347302 3.08645e-005 -0.937753
vn 0 -1 0
vn 0.346798 6.17168e-005 -0.93794
vn 0 1 0
vn -0.329582 9.89397e-005 -0.944127
vn 0 1 0
vn 1 1.52942e-005 2.37429e-005
vn 0 1 0
vn -0.00226477 -0.000338102 0.999997
vn 1 1.52942e-005 2.37429e-005
vn 0 -1 0
vn 0 0 -1
vn 1 3.05884e-005 0
vn 0 -1 0
vn 0 -0.000676179 1
vn 1 0 4.74859e-005
vn 0 1 0
vn 0 0 -1
vn -1 -5.06058e-006 0
vn 0 1 0
vn -0.00452953 -2.29221e-008 0.99999
vn -1 0 7.86438e-006
vn 0 -1 0
vn 0 0 -1
vn -1 -2.53029e-006 3.93219e-006
vn 0 1 0
vn 0 0 -1
vn -1 -2.53029e-006 3.93219e-006
vn 0 -1 0
vn -0.00226477 -0.000338102 0.999997
vn -0.00494174 -0.0003016 0.999988
vn 1 6.25039e-006 1.0878e-005
vn 0 1 0
vn 0 0 -1
vn 1 6.25039e-006 1.0878e-005
vn 0 -1 0
vn 0 -0.000603171 1
vn 1 1.25008e-005 0
vn 0 -1 0
vn 0 0 -1
vn 1 0 2.17561e-005
vn 0 1 0
vn -0.00988336 -2.04362e-008 0.999951
vn -1 -2.06774e-006 0
vn 0 1 0
vn 0 0 -1
vn -1 0 3.60243e-006
vn 0 -1 0
vn 0 0 -1
vn -1 -1.03387e-006 1.80121e-006
vn 0 1 0
vn -0.00494174 -0.0003016 0.999988
vn -1 -1.03387e-006 1.80121e-006
vn 0 -1 0
vn 0 1 0
vn 1 1.75666e-005 2.93518e-005
vn -0.0073251 -0.000629021 0.999973
vn 0 -1 0
vn 1 0 0
vn 0.786451 0 -0.617653
vn 0 -1 0
vn 1 8.7833e-006 1.46759e-005
vn -0.00366258 -0.000314512 0.999993
vn 0 1 0
vn 1 8.7833e-006 1.46759e-005
vn 0.785797 4.48471e-005 -0.618484
vn 0 1 0
vn -1 -1.45401e-006 2.42949e-006
vn -0.00366258 -0.000314512 0.999993
vn 0 -1 0
vn -1 -1.45401e-006 2.42949e-006
vn -0.761997 0.000146642 -0.647581
vn 0 1 0
vn -1 0 0
vn -0.75983 0 -0.650122
vn 0 -1 0
vn -1 -2.90802e-006 4.85897e-006
vn 0 0 1
vn 0 -1 0
vn -0.421288 0.00016169 -0.906927
vn 0 -1 0
vn 0.436758 2.49267e-005 -0.899579
vn 0 1 0
vn 0.436283 4.98407e-005 -0.89981
vn 0 1 0
vn -0.419772 8.07827e-005 -0.907629
vn 0 1 0
vn 1 1.20752e-005 1.8306e-005
vn -0.00293546 -0.000346234 0.999996
vn 0 -1 0
vn 1 1.20752e-005 1.8306e-005
vn 0 0 -1
vn 0 -1 0
vn 1 2.41503e-005 0
vn 0 -0.000692441 1
vn 0 1 0
vn 1 0 3.6612e-005
vn 0 0 -1
vn 0 1 0
vn -1 -3.99215e-006 0
vn -0.0058709 -2.34375e-008 0.999983
vn 0 -1 0
vn -1 0 6.05848e-006
vn 0 0 -1
vn 0 1 0
vn -1 -1.99608e-006 3.02924e-006
vn 0 0 -1
vn 0 -1 0
vn -1 -1.99608e-006 3.02924e-006
vn -0.00293546 -0.000346234 0.999996
vn 1 3.14996e-005 4.00823e-005
vn 0 1 0
vn -0.00536253 -0.000825978 0.999985
vn 1 0 0
vn 0 -1 0
vn 0.68185 0 -0.731492
vn 1 1.57498e-005 2.00411e-005
vn 0 -1 0
vn -0.00268128 -0.00041299 0.999996
vn 1 1.57498e-005 2.00411e-005
vn 0 1 0
vn 0.681056 6.96957e-005 -0.732231
vn -1 -2.6106e-006 3.32191e-006
vn 0 1 0
vn -0.00268128 -0.00041299 0.999996
vn -1 -2.6106e-006 3.32191e-006
vn 0 -1 0
vn -0.652658 0.000225526 -0.757653
vn -1 0 0
vn 0 1 0
vn -0.650118 0 -0.759833
vn -1 -5.22121e-006 6.64383e-006
vn 0 -1 0
vn 0 0 1
vn 0 -1 0
vn -0.349668 0.000240721 -0.936874
vn 0 -1 0
vn 0.365902 3.74445e-005 -0.930653
vn 0 1 0
vn 0.365398 7.4873e-005 -0.930852
vn 0 1 0
vn -0.348099 0.000120286 -0.937458
usemtl books_D
g mesh
s 1
f 2/1/6 4/3/12 3/2/9
f 3/2/9 4/3/12 1/4/3
f 5/5/15 6/7/18 8/6/24
f 7/8/21 6/7/18 5/5/15
f 13/9/35 20/11/56 15/10/41
f 14/12/38 19/14/53 16/13/44
f 17/15/47 20/11/56 13/9/35
f 18/16/50 19/14/53 14/12/38
f 21/17/59 22/19/62 24/18/68
f 23/20/65 22/19/62 21/17/59
f 26/21/74 28/23/80 27/22/77
f 27/22/77 28/23/80 25/24/71
f 29/25/83 36/27/104 31/26/89
f 30/28/86 35/30/101 32/29/92
f 33/31/95 36/27/104 29/25/83
f 34/32/98 35/30/101 30/28/86
f 38/33/110 40/35/116 39/34/113
f 39/34/113 40/35/116 37/36/107
f 41/37/119 42/39/122 44/38/128
f 43/40/125 42/39/122 41/37/119
f 49/25/139 56/27/160 51/26/145
f 50/41/142 55/43/157 52/42/148
f 53/31/151 56/27/160 49/25/139
f 54/44/154 55/43/157 50/41/142
f 57/45/163 63/47/181 61/46/175
f 58/48/166 64/50/184 62/49/178
f 59/51/169 64/50/184 58/48/166
f 60/52/172 63/47/181 57/45/163
f 65/53/187 69/55/199 67/54/193
f 66/56/190 74/58/212 68/57/196
f 67/54/193 69/55/199 72/59/208
f 68/57/196 74/58/212 75/60/214
f 70/61/202 76/63/216 73/62/210
f 71/64/205 76/63/216 70/61/202
f 73/62/210 76/63/216 74/58/212
f 74/58/212 76/63/216 75/60/214
f 77/25/219 84/27/240 79/26/225
f 78/65/222 83/67/237 80/66/228
f 81/31/231 84/27/240 77/25/219
f 82/68/234 83/67/237 78/65/222
f 85/25/243 89/31/255 87/26/249
f 86/69/246 94/71/268 88/70/252
f 87/26/249 89/31/255 92/27/264
f 88/70/252 94/71/268 95/72/270
f 90/73/258 96/75/272 93/74/266
f 91/76/261 96/75/272 90/73/258
f 93/74/266 96/75/272 94/71/268
f 94/71/268 96/75/272 95/72/270
s 2
f 2/48/5 9/78/26 10/77/28
f 3/51/8 6/49/17 2/48/5
f 4/52/11 5/46/14 1/45/2
f 5/46/14 4/52/11 7/47/20
f 7/47/20 4/52/11 12/79/32
f 8/50/23 6/49/17 3/51/8
f 9/78/26 2/48/5 6/49/17
f 11/80/30 12/79/32 4/52/11
f 13/81/34 14/83/37 16/82/43
f 15/84/40 14/83/37 13/81/34
f 18/85/49 20/87/55 19/86/52
f 19/86/52 20/87/55 17/88/46
f 21/45/58 27/47/76 25/46/70
f 22/48/61 28/50/79 26/49/73
f 23/51/64 28/50/79 22/48/61
f 24/52/67 27/47/76 21/45/58
f 29/89/82 30/91/85 32/90/91
f 31/92/88 30/91/85 29/89/82
f 34/93/97 36/95/103 35/94/100
f 35/94/100 36/95/103 33/96/94
f 38/97/109 45/99/130 46/98/132
f 39/100/112 42/101/121 38/97/109
f 40/102/115 41/104/118 37/103/106
f 41/104/118 40/102/115 43/105/124
f 43/105/124 40/102/115 48/106/136
f 44/107/127 42/101/121 39/100/112
f 45/99/130 38/97/109 42/101/121
f 47/108/134 48/106/136 40/102/115
f 49/45/138 55/47/156 53/46/150
f 50/48/141 56/50/159 54/49/153
f 51/51/144 56/50/159 50/48/141
f 52/52/147 55/47/156 49/45/138
f 57/109/162 58/111/165 60/110/171
f 59/112/168 58/111/165 57/109/162
f 62/113/177 64/115/183 63/114/180
f 63/114/180 64/115/183 61/116/174
f 66/33/189 68/35/195 67/34/192
f 67/34/192 68/35/195 65/36/186
f 69/37/198 70/39/201 72/38/207
f 71/40/204 70/39/201 69/37/198
f 77/109/218 78/111/221 80/110/227
f 79/112/224 78/111/221 77/109/218
f 82/113/233 84/115/239 83/114/236
f 83/114/236 84/115/239 81/116/230
f 86/48/245 93/78/265 94/77/267
f 87/51/248 90/49/257 86/48/245
f 88/52/251 89/46/254 85/45/242
f 89/46/254 88/52/251 91/47/260
f 91/47/260 88/52/251 96/79/271
f 92/50/263 90/49/257 87/51/248
f 93/78/265 86/48/245 90/49/257
f 95/80/269 96/79/271 88/52/251
s 3
f 1/25/1 5/31/13 3/26/7
f 2/117/4 10/119/27 4/118/10
f 3/26/7 5/31/13 8/27/22
f 4/118/10 10/119/27 11/120/29
f 6/121/16 12/123/31 9/122/25
f 7/124/19 12/123/31 6/121/16
f 9/122/25 12/123/31 10/119/27
f 10/119/27 12/123/31 11/120/29
f 13/125/33 19/127/51 17/126/45
f 14/128/36 20/130/54 18/129/48
f 15/131/39 20/130/54 14/128/36
f 16/132/42 19/127/51 13/125/33
f 21/25/57 28/27/78 23/26/63
f 22/133/60 27/135/75 24/134/66
f 25/31/69 28/27/78 21/25/57
f 26/136/72 27/135/75 22/133/60
f 29/45/81 35/47/99 33/46/93
f 30/48/84 36/50/102 34/49/96
f 31/51/87 36/50/102 30/48/84
f 32/52/90 35/47/99 29/45/81
f 37/53/105 41/55/117 39/54/111
f 38/137/108 46/139/131 40/138/114
f 39/54/111 41/55/117 44/59/126
f 40/138/114 46/139/131 47/140/133
f 42/141/120 48/143/135 45/142/129
f 43/144/123 48/143/135 42/141/120
f 45/142/129 48/143/135 46/139/131
f 46/139/131 48/143/135 47/140/133
f 49/145/137 50/147/140 52/146/146
f 51/148/143 50/147/140 49/145/137
f 54/149/152 56/151/158 55/150/155
f 55/150/155 56/151/158 53/152/149
f 57/25/161 64/27/182 59/26/167
f 58/153/164 63/154/179 60/13/170
f 61/31/173 64/27/182 57/25/161
f 62/155/176 63/154/179 58/153/164
f 66/97/188 73/99/209 74/98/211
f 67/100/191 70/101/200 66/97/188
f 68/102/194 69/104/197 65/103/185
f 69/104/197 68/102/194 71/105/203
f 71/105/203 68/102/194 76/106/215
f 72/107/206 70/101/200 67/100/191
f 73/99/209 66/97/188 70/101/200
f 75/108/213 76/106/215 68/102/194
f 77/45/217 83/47/235 81/46/229
f 78/48/220 84/50/238 82/49/232
f 79/51/223 84/50/238 78/48/220
f 80/52/226 83/47/235 77/45/217
f 86/156/244 88/158/250 87/157/247
f 87/157/247 88/158/250 85/159/241
f 89/160/253 90/162/256 92/161/262
f 91/163/259 90/162/256 89/160/253
