# Wavefront OBJ
# Created by fragMOTION
# http://www.fragmosoft.com

mtllib book05.mtl
# 16 vertices
v 7.172 0.000294552 9.42455
v -7.172 0 -9.42455
v 7.172 0 -9.42455
v -7.172 5.55112e-016 9.42455
v 7.172 1.43833 9.42455
v -7.172 1.43833 -9.42455
v -7.172 1.43833 9.42455
v 7.172 1.43828 -9.42455
v 6.9581 0.135479 9.34944
v 6.9581 1.30314 9.34944
v 6.9581 1.30309 -9.34944
v 6.9581 0.135189 -9.34944
v -7.09689 1.30239 -9.34944
v -7.09689 0.132701 -9.34944
v -7.09689 1.30939 9.34944
v -7.09689 0.140912 9.34944
# 53 texture vertices
vt 0.676545 0.779911
vt 0.674677 0.780541
vt 0.674574 0.998486
vt 0.676545 0.999116
vt 0.857735 0.999335
vt 0.999427 0.999335
vt 0.857735 0.781185
vt 0.999427 0.781185
vt 0.6706 0.0392712
vt 0.432989 0.0394873
vt 0.6706 0.0857098
vt 0.432989 0.0858885
vt 0.6706 0.0858606
vt 0.816572 0.780276
vt 0.816577 0.999734
vt 0.855405 0.780276
vt 0.855406 0.999734
vt 0.996633 0.778768
vt 0.99669 0.996914
vt 0.999324 0.779637
vt 0.999257 0.996044
vt 0.81377 0.999098
vt 0.674858 0.999358
vt 0.675476 0.997387
vt 0.674693 0.782171
vt 0.813612 0.782171
vt 0.811821 0.780272
vt 0.816886 0.78022
vt 0.816886 0.819054
vt 0.819687 0.782863
vt 0.854801 0.819229
vt 0.854801 0.780401
vt 0.852001 0.816587
vt 0.999427 0.996854
vt 0.857737 0.996854
vt 0.860263 0.999478
vt 0.857913 0.784112
vt 0.999582 0.784113
vt 0.998717 0.781476
vt 0.852001 0.783043
vt 0.819687 0.816412
vt 0.860416 0.781488
vt 0.675322 0.780303
vt 0.393734 0.0392161
vt 0.393734 0.0857353
vt 0.709855 0.0395424
vt 0.99854 0.99937
vt 0.709855 0.0860138
vt 0.811982 0.997203
vt 0.813539 0.999398
vt 0.813539 0.78019
vt 0.674619 0.78019
vt 0.674619 0.999398
# 48 normals
vn 1.02674e-005 -1 7.81342e-006
vn -0.173205 0.250038 0.952618
vn 1 0 0
vn 1.02674e-005 -1 7.81342e-006
vn -4.35964e-005 0.489164 -0.872192
vn -0.876401 0.481582 -0.000108177
vn 0 -1 1.56268e-005
vn -0.173431 0.254236 -0.951465
vn 1 0 0
vn 2.05349e-005 -1 2.94498e-017
vn -9.6596e-006 0.4704 0.882453
vn -0.882455 0.470396 2.76647e-017
vn -0.173431 -0.254236 0.951465
vn 1 0 0
vn 0 1 -2.58518e-006
vn -1.64296e-006 -0.483633 -0.875271
vn -0.875271 -0.483633 5.73875e-017
vn 3.39712e-006 1 -6.20103e-017
vn -0.000112085 -0.494612 0.869114
vn -0.869698 -0.493584 9.4353e-005
vn 1.69856e-006 1 -1.29259e-006
vn -0.1734 -0.253671 -0.951621
vn 1 0 0
vn 1.69856e-006 1 -1.29259e-006
vn -0.173342 0.254374 0.951444
vn 7.61056e-018 0 1
vn -0.173718 -0.259236 0.950063
vn 9.97152e-017 0 1
vn -0.17342 -0.254254 -0.951462
vn 2.16433e-016 0 -1
vn -0.173541 0.256183 -0.950922
vn 3.76181e-019 0 -1
vn -1 0 9.49981e-017
vn 1.13194e-005 -0.484675 -0.874694
vn -0.869698 -0.493584 9.4353e-005
vn 3.76181e-019 0 -1
vn -1 0 9.49981e-017
vn -8.71921e-005 0.492634 -0.870237
vn -2.15681e-016 0 -1
vn -0.870205 0.492689 -0.000216337
vn -1 0 9.49981e-017
vn -0.000224158 -0.503486 0.864003
vn -0.864012 -0.503471 0.000188694
vn 1.9182e-016 0 1
vn 8.90878e-005 0.478181 0.878261
vn -1 0 9.49981e-017
vn 9.97152e-017 0 1
vn -0.876401 0.481582 -0.000108177
usemtl books_D
g mesh
s 1
f 2/1/6 16/3/48 14/2/40
f 4/4/12 16/3/48 2/1/6
f 5/5/15 8/7/24 7/6/21
f 7/6/21 8/7/24 6/8/18
f 9/9/26 10/11/28 16/10/47
f 12/10/32 13/13/36 11/12/30
f 14/9/39 13/13/36 12/10/32
f 15/12/44 16/10/47 10/11/28
s 2
f 3/14/9 8/16/23 1/15/3
f 5/17/14 1/15/3 8/16/23
f 6/18/17 13/20/35 7/19/20
f 7/19/20 13/20/35 15/21/43
s 3
f 1/22/2 16/24/45 4/23/11
f 2/25/5 12/27/31 3/26/8
f 3/28/8 12/30/31 8/29/22
f 5/31/13 10/33/27 1/32/2
f 7/34/19 10/36/27 5/35/13
f 8/37/22 13/39/34 6/38/16
f 9/40/25 1/32/2 10/33/27
f 11/41/29 8/29/22 12/30/31
f 11/42/29 13/39/34 8/37/22
f 12/27/31 2/25/5 14/43/38
f 14/44/37 16/46/46 13/45/33
f 15/47/42 10/36/27 7/34/19
f 15/48/41 13/45/33 16/46/46
f 16/24/45 1/22/2 9/49/25
s 4
f 1/50/1 2/52/4 3/51/7
f 4/53/10 2/52/4 1/50/1
