# Wavefront OBJ
# Created by fragMOTION
# http://www.fragmosoft.com

mtllib book04.mtl
# 16 vertices
v 11.7833 0.000374637 18.4775
v -11.7833 0 -18.4775
v 11.7833 0 -18.4775
v -11.7833 7.77156e-016 18.4775
v 11.7833 1.82939 18.4775
v -11.7833 1.82939 -18.4775
v -11.7833 1.82939 18.4775
v 11.7833 1.82933 -18.4775
v 11.4318 0.172314 18.3302
v 11.4318 1.65744 18.3302
v 11.4318 1.65738 -18.3302
v 11.4318 0.171945 -18.3302
v -11.6599 1.65649 -18.3302
v -11.6599 0.168781 -18.3302
v -11.6599 1.6654 18.3302
v -11.6599 0.179224 18.3302
# 53 texture vertices
vt 0.285822 0.559
vt 0.283955 0.559629
vt 0.283852 0.777697
vt 0.285822 0.778327
vt 0.483799 0.77784
vt 0.61863 0.77784
vt 0.483799 0.559011
vt 0.61863 0.559011
vt 0.6706 0.0392712
vt 0.432989 0.0394873
vt 0.6706 0.0857098
vt 0.432989 0.0858885
vt 0.6706 0.0858606
vt 0.421937 0.559032
vt 0.421942 0.77849
vt 0.480896 0.559032
vt 0.480896 0.77849
vt 0.615837 0.556593
vt 0.615893 0.77542
vt 0.618527 0.557463
vt 0.61846 0.774549
vt 0.418761 0.778309
vt 0.284136 0.778569
vt 0.284754 0.776597
vt 0.28397 0.56126
vt 0.418603 0.56126
vt 0.416812 0.559361
vt 0.422228 0.558976
vt 0.422228 0.59781
vt 0.424816 0.561619
vt 0.480337 0.597985
vt 0.480337 0.559157
vt 0.477749 0.595343
vt 0.61863 0.775359
vt 0.483801 0.775359
vt 0.486327 0.777983
vt 0.483977 0.561938
vt 0.618785 0.561938
vt 0.61792 0.559302
vt 0.477749 0.561799
vt 0.424816 0.595168
vt 0.48648 0.559314
vt 0.284599 0.559392
vt 0.393734 0.0392161
vt 0.393734 0.0857353
vt 0.709855 0.0395424
vt 0.617743 0.777875
vt 0.709855 0.0860138
vt 0.416972 0.776413
vt 0.41853 0.778608
vt 0.41853 0.559278
vt 0.283896 0.559278
vt 0.283896 0.778608
# 48 normals
vn 7.94849e-006 -1 5.06883e-006
vn -0.209155 0.347957 0.913882
vn 1 0 0
vn 7.94849e-006 -1 5.06883e-006
vn -4.50438e-005 0.653997 -0.756497
vn -0.81548 0.578785 -8.4087e-005
vn 0 -1 1.01377e-005
vn -0.209566 0.352729 -0.911956
vn 1 0 0
vn 1.5897e-005 -1 2.10273e-017
vn -1.00924e-005 0.634861 0.772626
vn -0.82363 0.567127 4.35499e-017
vn -0.209566 -0.352729 0.911956
vn 1 0 0
vn 0 1 -1.6771e-006
vn -1.70525e-006 -0.648417 -0.761285
vn -0.813937 -0.580953 7.80206e-017
vn 2.62987e-006 1 -1.04478e-017
vn -0.000115167 -0.65942 0.751775
vn -0.806512 -0.591218 7.31155e-005
vn 1.31493e-006 1 -8.38548e-007
vn -0.20951 -0.352091 -0.912216
vn 1 0 0
vn 1.31493e-006 1 -8.38548e-007
vn -0.209476 0.352888 0.911915
vn -6.18657e-017 0 1
vn -0.210074 -0.358304 0.909663
vn -9.03771e-017 0 1
vn -0.209554 -0.35275 -0.911951
vn 0 0 -1
vn -0.209761 0.354914 -0.911063
vn 2.37533e-018 0 -1
vn -1 0 1.35672e-016
vn 1.17354e-005 -0.649473 -0.760385
vn -0.806512 -0.591218 7.31155e-005
vn 2.37533e-018 0 -1
vn -1 0 1.35672e-016
vn -9.00867e-005 0.657484 -0.753468
vn 4.75065e-018 0 -1
vn -0.807166 0.590325 -0.000168157
vn -1 0 1.35672e-016
vn -0.000230319 -0.668252 0.743935
vn -0.798957 -0.601388 0.000146219
vn -1.18889e-016 0 1
vn 9.23209e-005 0.642834 0.766006
vn -1 0 1.35672e-016
vn -9.03771e-017 0 1
vn -0.81548 0.578785 -8.4087e-005
usemtl books_D
g mesh
s 1
f 2/1/6 16/3/48 14/2/40
f 4/4/12 16/3/48 2/1/6
f 5/5/15 8/7/24 7/6/21
f 7/6/21 8/7/24 6/8/18
f 9/9/26 10/11/28 16/10/47
f 12/10/32 13/13/36 11/12/30
f 14/9/39 13/13/36 12/10/32
f 15/12/44 16/10/47 10/11/28
s 2
f 3/14/9 8/16/23 1/15/3
f 5/17/14 1/15/3 8/16/23
f 6/18/17 13/20/35 7/19/20
f 7/19/20 13/20/35 15/21/43
s 3
f 1/22/2 16/24/45 4/23/11
f 2/25/5 12/27/31 3/26/8
f 3/28/8 12/30/31 8/29/22
f 5/31/13 10/33/27 1/32/2
f 7/34/19 10/36/27 5/35/13
f 8/37/22 13/39/34 6/38/16
f 9/40/25 1/32/2 10/33/27
f 11/41/29 8/29/22 12/30/31
f 11/42/29 13/39/34 8/37/22
f 12/27/31 2/25/5 14/43/38
f 14/44/37 16/46/46 13/45/33
f 15/47/42 10/36/27 7/34/19
f 15/48/41 13/45/33 16/46/46
f 16/24/45 1/22/2 9/49/25
s 4
f 1/50/1 2/52/4 3/51/7
f 4/53/10 2/52/4 1/50/1
