# Wavefront OBJ
# Created by fragMOTION
# http://www.fragmosoft.com

mtllib book15.mtl
# 16 vertices
v 10.2211 0.00078508 12.5997
v -10.2211 0 -12.5997
v 10.2211 0 -12.5997
v -10.2211 1.38778e-015 12.5997
v 10.2211 3.83362 12.5997
v -10.2211 3.83362 -12.5997
v -10.2211 3.83362 12.5997
v 10.2211 3.83349 -12.5997
v 9.91622 0.361097 12.4992
v 9.91622 3.4733 12.4992
v 9.91622 3.47317 -12.4992
v 9.91622 0.360323 -12.4992
v -10.114 3.4713 -12.4992
v -10.114 0.353693 -12.4992
v -10.114 3.48998 12.4992
v -10.114 0.375577 12.4992
# 53 texture vertices
vt 0.344796 0.203106
vt 0.342928 0.203736
vt 0.342826 0.411364
vt 0.344796 0.411994
vt 0.532014 0.412235
vt 0.667309 0.412235
vt 0.532014 0.202866
vt 0.667309 0.202866
vt 0.996706 0.361852
vt 0.996432 0.0537549
vt 0.916549 0.361852
vt 0.916322 0.0537549
vt 0.916357 0.361852
vt 0.480834 0.202887
vt 0.480839 0.412235
vt 0.530919 0.202887
vt 0.53092 0.412235
vt 0.664516 0.202772
vt 0.664573 0.412138
vt 0.667207 0.203641
vt 0.66714 0.411267
vt 0.479807 0.411976
vt 0.34311 0.412236
vt 0.343727 0.410264
vt 0.342944 0.205366
vt 0.47965 0.205366
vt 0.477858 0.203468
vt 0.481125 0.202832
vt 0.481125 0.241665
vt 0.483713 0.205474
vt 0.530361 0.241841
vt 0.530361 0.203012
vt 0.527772 0.239199
vt 0.667309 0.409754
vt 0.532016 0.409754
vt 0.534542 0.412378
vt 0.532192 0.205793
vt 0.667464 0.205794
vt 0.6666 0.203157
vt 0.527772 0.205654
vt 0.483713 0.239023
vt 0.534695 0.203169
vt 0.343573 0.203498
vt 0.996776 0.0039017
vt 0.916516 0.0039017
vt 0.996362 0.411705
vt 0.666422 0.41227
vt 0.916162 0.411705
vt 0.478019 0.41008
vt 0.479576 0.412275
vt 0.479576 0.203385
vt 0.34287 0.203385
vt 0.34287 0.412275
# 48 normals
vn 1.92025e-005 -1 1.55774e-005
vn -0.159774 0.134581 0.977937
vn 1 0 0
vn 1.92025e-005 -1 1.55774e-005
vn -4.52081e-005 0.270805 -0.962634
vn -0.959434 0.281933 -0.000126826
vn 0 -1 3.11548e-005
vn -0.159873 0.13718 -0.977559
vn 1 0 0
vn 3.8405e-005 -1 5.50731e-017
vn -9.92011e-006 0.258302 0.966064
vn -0.9617 0.274103 5.28814e-017
vn -0.159873 -0.13718 0.977559
vn 1 0 0
vn 0 1 -5.154e-006
vn -1.69691e-006 -0.267085 -0.963673
vn -0.95902 -0.283338 1.12834e-016
vn 6.35342e-006 1 -1.36788e-016
vn -0.000116804 -0.274513 0.961583
vn -0.956902 -0.290411 0.000111137
vn 3.17671e-006 1 -2.577e-006
vn -0.15986 -0.136827 -0.977611
vn 1 0 0
vn 3.17671e-006 1 -2.577e-006
vn -0.159778 0.137266 0.977563
vn 1.32682e-016 0 1
vn -0.160001 -0.140329 0.977091
vn 6.99006e-017 0 1
vn -0.159861 -0.137191 -0.97756
vn -2.27917e-016 0 -1
vn -0.159922 0.138399 -0.977379
vn -7.04003e-017 0 -1
vn -1 0 7.10585e-017
vn 1.17026e-005 -0.267784 -0.963479
vn -0.956902 -0.290411 0.000111137
vn -7.04003e-017 0 -1
vn -1 0 7.10585e-017
vn -9.0416e-005 0.273147 -0.961972
vn 8.71163e-017 0 -1
vn -0.957104 0.289744 -0.000253644
vn -1 0 7.10585e-017
vn -0.000233604 -0.280554 0.959838
vn -0.954732 -0.297468 0.000222268
vn 7.11885e-018 0 1
vn 9.21368e-005 0.263466 0.964669
vn -1 0 7.10585e-017
vn 6.99006e-017 0 1
vn -0.959434 0.281933 -0.000126826
usemtl bookcase_D
g mesh
s 1
f 2/1/6 16/3/48 14/2/40
f 4/4/12 16/3/48 2/1/6
f 5/5/15 8/7/24 7/6/21
f 7/6/21 8/7/24 6/8/18
f 9/9/26 10/11/28 16/10/47
f 12/10/32 13/13/36 11/12/30
f 14/9/39 13/13/36 12/10/32
f 15/12/44 16/10/47 10/11/28
s 2
f 3/14/9 8/16/23 1/15/3
f 5/17/14 1/15/3 8/16/23
f 6/18/17 13/20/35 7/19/20
f 7/19/20 13/20/35 15/21/43
s 3
f 1/22/2 16/24/45 4/23/11
f 2/25/5 12/27/31 3/26/8
f 3/28/8 12/30/31 8/29/22
f 5/31/13 10/33/27 1/32/2
f 7/34/19 10/36/27 5/35/13
f 8/37/22 13/39/34 6/38/16
f 9/40/25 1/32/2 10/33/27
f 11/41/29 8/29/22 12/30/31
f 11/42/29 13/39/34 8/37/22
f 12/27/31 2/25/5 14/43/38
f 14/44/37 16/46/46 13/45/33
f 15/47/42 10/36/27 7/34/19
f 15/48/41 13/45/33 16/46/46
f 16/24/45 1/22/2 9/49/25
s 4
f 1/50/1 2/52/4 3/51/7
f 4/53/10 2/52/4 1/50/1
