# Wavefront OBJ
# Created by fragMOTION
# http://www.fragmosoft.com

mtllib book10.mtl
# 16 vertices
v 10.7396 0.0003543 14.518
v -10.7396 0 -14.518
v 10.7396 0 -14.518
v -10.7396 6.93889e-016 14.518
v 10.7396 1.73008 14.518
v -10.7396 1.73008 -14.518
v -10.7396 1.73008 14.518
v 10.7396 1.73002 -14.518
v 10.4193 0.16296 14.4023
v 10.4193 1.56747 14.4023
v 10.4193 1.56741 -14.4023
v 10.4193 0.162611 -14.4023
v -10.6271 1.56657 -14.4023
v -10.6271 0.159619 -14.4023
v -10.6271 1.575 14.4023
v -10.6271 0.169495 14.4023
# 55 texture vertices
vt 0.00263533 0.559414
vt 0.000767697 0.560044
vt 0.000664877 0.776151
vt 0.00263533 0.776781
vt 0.146905 0.779196
vt 0.282438 0.779196
vt 0.146905 0.559972
vt 0.282438 0.559972
vt 0.34108 0.0272131
vt 0.0500011 0.0275246
vt 0.34108 0.0941491
vt 0.0500011 0.0944068
vt 0.34108 0.0943665
vt 0.34108 0.0273143
vt 0.0500011 0.0945079
vt 0.136117 0.559337
vt 0.136122 0.779204
vt 0.147446 0.559337
vt 0.147447 0.779204
vt 0.279645 0.560109
vt 0.279701 0.77933
vt 0.282336 0.560978
vt 0.282268 0.778459
vt 0.133756 0.776763
vt 0.000949033 0.777023
vt 0.00156658 0.775052
vt 0.000783257 0.561674
vt 0.133598 0.561674
vt 0.131807 0.559775
vt 0.136408 0.559282
vt 0.136408 0.598116
vt 0.138996 0.561924
vt 0.146888 0.598291
vt 0.146888 0.559462
vt 0.144299 0.595649
vt 0.282438 0.776715
vt 0.146907 0.776715
vt 0.149433 0.779339
vt 0.147083 0.562899
vt 0.282593 0.5629
vt 0.281729 0.560263
vt 0.144299 0.562104
vt 0.138996 0.595473
vt 0.149586 0.560275
vt 0.00141235 0.559806
vt 0.00191344 0.0271336
vt 0.00191344 0.0941859
vt 0.389168 0.0276041
vt 0.281551 0.779231
vt 0.389168 0.0945874
vt 0.131967 0.774868
vt 0.133525 0.777063
vt 0.133525 0.559693
vt 0.000709286 0.559693
vt 0.000709286 0.777063
# 48 normals
vn 8.24749e-006 -1 6.10103e-006
vn -0.180459 0.303853 0.935472
vn 1 0 0
vn 8.24749e-006 -1 6.10103e-006
vn -4.17246e-005 0.583369 -0.812207
vn -0.825378 0.56458 -9.87737e-005
vn 0 -1 1.22021e-005
vn -0.180763 0.308466 -0.933902
vn 1 0 0
vn 1.6495e-005 -1 2.38956e-017
vn -9.30019e-006 0.56382 0.825898
vn -0.833225 0.552934 1.398e-016
vn -0.180763 -0.308466 0.933902
vn 1 0 0
vn 0 1 -2.01861e-006
vn -1.57626e-006 -0.57764 -0.816292
vn -0.823896 -0.566742 1.6545e-016
vn 2.7288e-006 1 -2.95659e-017
vn -0.000106954 -0.588972 0.808154
vn -0.816735 -0.577013 8.59273e-005
vn 1.3644e-006 1 -1.00931e-006
vn -0.180722 -0.307847 -0.934114
vn 1 0 0
vn 1.3644e-006 1 -1.00931e-006
vn -0.180679 0.308618 0.933868
vn 2.2535e-017 0 1
vn -0.181144 -0.313902 0.932015
vn 6.3343e-017 0 1
vn -0.180752 -0.308486 -0.933898
vn 0 0 -1
vn -0.180909 0.31059 -0.933169
vn -2.06213e-017 0 -1
vn -1 0 1.23338e-016
vn 1.08533e-005 -0.578722 -0.815525
vn -0.816735 -0.577013 8.59273e-005
vn -2.06213e-017 0 -1
vn -1 0 1.23338e-016
vn -8.34485e-005 0.586956 -0.809619
vn -4.12426e-017 0 -1
vn -0.817369 0.576115 -0.000197528
vn -1 0 1.23338e-016
vn -0.000213894 -0.598098 0.801423
vn -0.809446 -0.587195 0.000171841
vn 1.04151e-016 0 1
vn 8.53999e-005 0.571947 0.820291
vn -1 0 1.23338e-016
vn 6.3343e-017 0 1
vn -0.825378 0.56458 -9.87737e-005
usemtl books_D
g mesh
s 1
f 2/1/6 16/3/48 14/2/40
f 4/4/12 16/3/48 2/1/6
f 5/5/15 8/7/24 7/6/21
f 7/6/21 8/7/24 6/8/18
f 9/9/26 10/11/28 16/10/47
f 12/10/32 13/13/36 11/12/30
f 14/14/39 13/13/36 12/10/32
f 15/15/44 16/10/47 10/11/28
s 2
f 3/16/9 8/18/23 1/17/3
f 5/19/14 1/17/3 8/18/23
f 6/20/17 13/22/35 7/21/20
f 7/21/20 13/22/35 15/23/43
s 3
f 1/24/2 16/26/45 4/25/11
f 2/27/5 12/29/31 3/28/8
f 3/30/8 12/32/31 8/31/22
f 5/33/13 10/35/27 1/34/2
f 7/36/19 10/38/27 5/37/13
f 8/39/22 13/41/34 6/40/16
f 9/42/25 1/34/2 10/35/27
f 11/43/29 8/31/22 12/32/31
f 11/44/29 13/41/34 8/39/22
f 12/29/31 2/27/5 14/45/38
f 14/46/37 16/48/46 13/47/33
f 15/49/42 10/38/27 7/36/19
f 15/50/41 13/47/33 16/48/46
f 16/26/45 1/24/2 9/51/25
s 4
f 1/52/1 2/54/4 3/53/7
f 4/55/10 2/54/4 1/52/1
