# Wavefront OBJ
# Created by fragMOTION
# http://www.fragmosoft.com

mtllib book07.mtl
# 24 vertices
v -9.93756 0.000473194 13.2197
v 8.88968 0 -13.2201
v -9.90789 0 -13.2262
v 8.87976 1.11022e-015 13.2258
v -9.91781 2.31065 13.2197
v 8.88968 2.31065 -13.2201
v 8.87976 2.31065 13.2258
v -9.90789 2.31057 -13.2262
v 9.93756 1.55286 -13.2197
v 9.93756 0.705052 -13.2197
v 9.92764 0.708126 13.2262
v 9.92764 1.54254 13.2262
v 8.71628 0.20615 13.1561
v 9.5719 0.784347 13.1564
v 9.5719 1.47095 13.1564
v 8.70759 2.1045 13.1561
v 8.72661 0.206146 -13.1504
v 8.71891 2.1045 -13.1504
v 9.58177 1.48052 -13.1501
v 9.58177 0.781525 -13.1501
v -9.77686 0.205115 -13.1102
v -9.77686 2.10341 -13.1102
v -9.78822 2.12178 13.1039
v -9.80439 0.229917 13.1039
# 56 texture vertices
vt 0.716187 0.156018
vt 0.842296 0.156018
vt 0.716187 0.336008
vt 0.842296 0.336008
vt 0.998023 0.156633
vt 0.998023 0.335471
vt 0.887599 0.335471
vt 0.887599 0.156633
vt 0.646993 0.0396197
vt 0.448122 0.0400348
vt 0.448279 0.0849261
vt 0.656182 0.0533404
vt 0.656167 0.0696334
vt 0.646871 0.0846531
vt 0.4575 0.0848008
vt 0.656086 0.084791
vt 0.656091 0.0397449
vt 0.448223 0.0700029
vt 0.457406 0.0397694
vt 0.448212 0.0534147
vt 0.715608 0.336552
vt 0.715608 0.155477
vt 0.716766 0.336552
vt 0.887251 0.334853
vt 0.887251 0.157134
vt 0.873083 0.334853
vt 0.716766 0.155477
vt 0.873083 0.157134
vt 0.844797 0.334853
vt 0.85965 0.334853
vt 0.85965 0.157134
vt 0.844797 0.157134
vt 0.887638 0.334425
vt 0.887795 0.156612
vt 0.889208 0.334425
vt 0.889216 0.156612
vt 0.887251 0.337015
vt 0.716187 0.154935
vt 0.843454 0.337096
vt 0.887599 0.155128
vt 0.999514 0.337049
vt 0.844797 0.154952
vt 0.85965 0.337015
vt 0.873083 0.154952
vt 0.887251 0.154952
vt 0.85965 0.154952
vt 0.999522 0.155128
vt 0.844797 0.337015
vt 0.873083 0.337015
vt 0.843454 0.154935
vt 0.393359 0.0395362
vt 0.393359 0.0845737
vt 0.710945 0.040124
vt 0.887599 0.337049
vt 0.710945 0.0850096
vt 0.716187 0.337096
# 64 normals
vn -0.000278623 0.450855 0.892597
vn -0.865097 0.501603 -0.000979627
vn -2.51525e-005 -1 1.78647e-005
vn -0.0717236 0.267862 -0.960784
vn 0.558237 -0.829682 0.000209387
vn -1.36375e-020 -1 4.19809e-017
vn -0.000808247 0.408474 -0.912769
vn -0.853935 0.520379 -0.00118746
vn -1.25763e-005 -1 8.93233e-006
vn -0.0732483 0.301167 0.950754
vn 0.559073 -0.829118 0.000257856
vn -1.25763e-005 -1 8.93233e-006
vn -0.00161076 -0.425011 0.905187
vn -0.834948 -0.550329 -0.000138083
vn -2.08174e-006 1 -1.48081e-006
vn -0.0750292 -0.30714 -0.948702
vn 0.588596 0.808427 0.000378993
vn -2.08174e-006 1 -1.48081e-006
vn -0.0750382 -0.262821 0.961922
vn 0.591196 0.806528 0.00022175
vn 4.36399e-020 1 -1.42932e-016
vn 0.000285535 -0.488228 -0.872716
vn -0.845056 -0.534678 -0.000315387
vn -4.16348e-006 1 -2.96162e-006
vn -0.170731 -0.102867 -0.979933
vn 0.890502 0.454978 0.000511688
vn -0.16857 0.107275 -0.979835
vn 0.882914 -0.469535 0.00035844
vn -0.169343 0.107014 0.97973
vn 0.88315 -0.46909 0.000385784
vn -0.171763 -0.102033 0.97984
vn 0.891234 0.453543 0.000423054
vn -0.0734627 0.266879 0.960926
vn -0.00157283 2.47264e-006 0.999999
vn -0.169343 0.107014 0.97973
vn -0.00032485 0 1
vn -0.171763 -0.102033 0.97984
vn -0.00032485 -2.28343e-016 1
vn -0.0763024 -0.316611 0.945482
vn -0.00157367 -5.7183e-006 0.999999
vn -0.0727094 0.313053 -0.946948
vn -0.000507355 -3.37624e-006 -1
vn -0.0751674 -0.262709 -0.961943
vn -0.00133991 -3.37624e-006 -0.999999
vn -0.170731 -0.102867 -0.979933
vn 0.00032485 -5.15145e-016 -1
vn -0.16857 0.107275 -0.979835
vn 0.00032485 0 -1
vn -0.999999 0 -0.00105044
vn -0.00191698 0.492993 -0.870031
vn -0.842364 0.538907 -0.00139472
vn -0.00217228 -5.06436e-006 -0.999998
vn -0.999991 0.00427513 -0.000744895
vn -0.000881417 -0.405134 -0.914257
vn -0.834948 -0.550329 -0.000138083
vn -0.0021728 0 -0.999998
vn -0.999963 0.00855019 -0.000439333
vn -0.00289325 -0.524315 0.851519
vn -0.82455 -0.56579 3.92697e-005
vn -0.0028208 4.94527e-006 0.999996
vn -0.00127394 0.385863 0.922555
vn -0.999991 0.00427513 -0.000744895
vn -0.853935 0.520379 -0.00118746
vn -0.0028191 2.13271e-005 0.999996
usemtl books_D
g mesh
s 1
f 2/1/6 4/3/12 3/2/9
f 3/2/9 4/3/12 1/4/3
f 5/5/15 6/7/18 8/6/24
f 7/8/21 6/7/18 5/5/15
f 13/9/34 23/11/60 24/10/64
f 14/12/36 15/13/38 13/9/34
f 16/14/40 13/9/34 15/13/38
f 18/15/44 21/17/52 22/16/56
f 19/18/46 17/19/42 18/15/44
f 20/20/48 17/19/42 19/18/46
f 21/17/52 18/15/44 17/19/42
f 23/11/60 13/9/34 16/14/40
s 2
f 1/21/2 24/23/63 3/22/8
f 2/24/5 10/26/28 4/25/11
f 3/22/8 24/23/63 21/27/51
f 4/25/11 10/26/28 11/28/30
f 6/29/17 12/31/32 9/30/26
f 7/32/20 12/31/32 6/29/17
f 8/33/23 22/35/55 5/34/14
f 9/30/26 12/31/32 10/26/28
f 10/26/28 12/31/32 11/28/30
f 23/36/59 5/34/14 22/35/55
s 3
f 2/24/4 17/37/41 10/26/27
f 3/2/7 17/38/41 2/1/4
f 4/3/10 24/39/61 1/4/1
f 5/5/13 16/40/39 7/8/19
f 6/7/16 22/41/54 8/6/22
f 7/32/19 16/42/39 12/31/31
f 9/30/25 19/43/45 6/29/16
f 10/26/27 19/43/45 9/30/25
f 11/28/29 14/44/35 4/25/10
f 12/31/31 14/44/35 11/28/29
f 13/45/33 4/25/10 14/44/35
f 14/44/35 12/31/31 15/46/37
f 15/46/37 12/31/31 16/42/39
f 16/40/39 5/5/13 23/47/58
f 18/48/43 6/29/16 19/43/45
f 19/43/45 10/26/27 20/49/47
f 20/49/47 10/26/27 17/37/41
f 21/50/50 17/38/41 3/2/7
f 21/51/49 24/53/62 22/52/53
f 22/41/54 6/7/16 18/54/43
f 22/52/53 24/53/62 23/55/57
f 24/39/61 4/3/10 13/56/33
