# Wavefront OBJ
# Created by fragMOTION
# http://www.fragmosoft.com

mtllib book02.mtl
# 24 vertices
v -6.31402 0.000304063 -11.3715
v 5.64789 0 11.3715
v -6.30146 0 11.3715
v 5.64789 5.55112e-016 -11.3715
v -6.30146 1.48477 -11.3715
v 5.64789 1.48477 11.3715
v 5.64789 1.48477 -11.3715
v -6.30146 1.48472 11.3715
v 6.31402 0.997832 11.3715
v 6.31402 0.453049 11.3715
v 6.31402 0.455024 -11.3715
v 6.31402 0.991196 -11.3715
v 5.54396 0.132467 -11.3116
v 6.08786 0.504002 -11.3116
v 6.08786 0.945199 -11.3116
v 5.53843 1.3523 -11.3116
v 5.54425 0.132465 11.3116
v 5.53935 1.3523 11.3116
v 6.08786 0.951345 11.3116
v 6.08786 0.502189 11.3116
v -6.21814 0.131802 11.2719
v -6.21814 1.3516 11.2719
v -6.21911 1.36341 -11.2719
v -6.22939 0.147739 -11.2719
# 56 texture vertices
vt 0.00364668 0.334854
vt 0.00364668 0.120171
vt 0.159821 0.120171
vt 0.159821 0.334854
vt 0.196056 0.119482
vt 0.352784 0.119482
vt 0.196056 0.335243
vt 0.352784 0.335243
vt 0.384101 0.0934855
vt 0.0070728 0.0928471
vt 0.0070728 0.0268825
vt 0.384101 0.0277434
vt 0.00364668 0.335645
vt 0.00199646 0.335645
vt 0.00199646 0.119383
vt 0.19391 0.334262
vt 0.182719 0.334262
vt 0.182719 0.12035
vt 0.00364668 0.119383
vt 0.19391 0.12035
vt 0.195978 0.120858
vt 0.196135 0.335594
vt 0.194557 0.120858
vt 0.160376 0.334262
vt 0.160376 0.12035
vt 0.172108 0.334262
vt 0.172108 0.12035
vt 0.308179 0.0270047
vt 0.319088 0.047101
vt 0.31907 0.0709647
vt 0.308035 0.0929634
vt 0.0722727 0.0933633
vt 0.0831083 0.027224
vt 0.318981 0.0271882
vt 0.0832193 0.0931798
vt 0.0722064 0.0715059
vt 0.0721935 0.0472098
vt 0.194565 0.335594
vt 0.318974 0.0931654
vt 0.0720859 0.0276127
vt 0.159821 0.336436
vt 0.19391 0.337013
vt 0.182719 0.337013
vt 0.00199646 0.118596
vt 0.19391 0.117574
vt 0.160376 0.337013
vt 0.194557 0.117977
vt 0.352784 0.336821
vt 0.172108 0.117574
vt 0.182719 0.117574
vt 0.160376 0.117574
vt 0.194565 0.336821
vt 0.172108 0.337013
vt 0.159821 0.118596
vt 0.352784 0.117977
vt 0.00199646 0.336436
# 64 normals
vn -0.00103158 0.488332 -0.872657
vn -0.856509 0.516132 0.000629373
vn -1.27096e-005 -1 -6.68473e-006
vn -0.0968219 0.398442 0.912069
vn 0.563217 -0.826309 -3.5908e-005
vn -1.27096e-005 -1 -6.68473e-006
vn 0 0.603156 0.797623
vn -0.845098 0.534612 0.000473739
vn 0 -1 -1.33695e-005
vn -0.0954214 0.34726 -0.932902
vn 0.564054 -0.825738 -6.6564e-017
vn -2.54192e-005 -1 -2.44059e-017
vn 0 -0.634657 -0.772794
vn -0.827477 -0.561499 -1.24189e-006
vn 0 1 2.21174e-006
vn -0.098353 -0.342246 0.934449
vn 0.590136 0.807304 2.65485e-017
vn -4.20958e-006 1 7.17009e-017
vn -0.100931 -0.401173 -0.910425
vn 0.592741 0.805393 -0.000117221
vn -2.10479e-006 1 1.10587e-006
vn -0.00134026 -0.509386 0.860537
vn -0.837745 -0.546062 -0.000121293
vn -2.10479e-006 1 1.10587e-006
vn -0.227869 -0.13481 0.964314
vn 0.892397 0.451252 -6.56776e-005
vn -0.225008 0.14052 0.964171
vn 0.88385 -0.467771 -4.06268e-005
vn -0.225185 0.140179 -0.964179
vn 0.884086 -0.467323 -2.0308e-005
vn -0.228388 -0.133727 -0.964342
vn 0.893124 0.449811 -0.000131248
vn -0.0964831 0.38683 -0.91709
vn -0.00168832 3.30922e-006 -0.999999
vn -0.225185 0.140179 -0.964179
vn -1.48049e-014 0 -1
vn -0.228388 -0.133727 -0.964342
vn -7.40247e-015 0 -1
vn -0.100644 -0.33994 -0.935046
vn -0.00168946 -7.65302e-006 -0.999999
vn -0.0967752 0.346484 0.933051
vn -0.00168876 -6.77783e-006 0.999999
vn -0.0998689 -0.392963 0.914115
vn -0.00168911 -3.38892e-006 0.999999
vn -0.227869 -0.13481 0.964314
vn 0 0 1
vn -0.225008 0.14052 0.964171
vn -1.33575e-015 0 1
vn -0.00156152 0.509913 0.860224
vn -0.00337822 -6.77782e-006 0.999994
vn -0.856509 0.516132 0.000629373
vn -0.999991 0.0042293 0.000274125
vn -0.00266618 -0.600409 0.799689
vn -0.00337893 0 0.999994
vn -0.847725 -0.530436 -0.000241303
vn -1 0 4.30714e-005
vn -0.00174993 -0.526892 -0.84993
vn -0.00337663 6.61844e-006 -0.999994
vn -0.837745 -0.546062 -0.000121293
vn -0.999991 0.0042293 0.000274125
vn -0.00206615 0.560861 -0.827908
vn -0.00337433 2.85429e-005 -0.999994
vn -0.867516 0.49741 0.000784709
vn -0.999964 0.00845852 0.000505174
usemtl books_D
g mesh
s 1
f 1/1/3 2/3/6 3/2/9
f 4/4/12 2/3/6 1/1/3
f 5/5/15 8/7/24 7/6/21
f 7/6/21 8/7/24 6/8/18
f 23/9/60 21/11/52 22/10/56
f 24/12/64 21/11/52 23/9/60
s 2
f 1/13/2 21/15/51 24/14/63
f 2/16/5 11/18/30 10/17/28
f 3/19/8 21/15/51 1/13/2
f 4/20/11 11/18/30 2/16/5
f 5/21/14 23/23/59 8/22/23
f 6/24/17 9/26/26 7/25/20
f 7/25/20 9/26/26 12/27/32
f 9/26/26 11/18/30 12/27/32
f 10/17/28 11/18/30 9/26/26
f 13/28/34 15/30/38 14/29/36
f 15/30/38 13/28/34 16/31/40
f 16/31/40 13/28/34 23/32/58
f 17/33/42 18/35/44 21/34/50
f 18/35/44 20/37/48 19/36/46
f 20/37/48 18/35/44 17/33/42
f 22/38/55 8/22/23 23/23/59
f 22/39/54 21/34/50 18/35/44
f 24/40/62 23/32/58 13/28/34
s 3
f 1/1/1 13/41/33 4/4/10
f 2/16/4 20/43/47 17/42/41
f 2/3/4 21/44/49 3/2/7
f 4/20/10 13/45/33 11/18/29
f 6/24/16 18/46/43 9/26/25
f 7/6/19 23/47/57 5/5/13
f 8/7/22 18/48/43 6/8/16
f 9/26/25 20/43/47 10/17/27
f 10/17/27 20/43/47 2/16/4
f 11/18/29 15/49/37 12/27/31
f 12/27/31 15/49/37 7/25/19
f 14/50/35 11/18/29 13/45/33
f 15/49/37 11/18/29 14/50/35
f 16/51/39 7/25/19 15/49/37
f 18/48/43 8/7/22 22/52/53
f 19/53/45 9/26/25 18/46/43
f 20/43/47 9/26/25 19/53/45
f 21/44/49 2/3/4 17/54/41
f 23/47/57 7/6/19 16/55/39
f 24/56/61 13/41/33 1/1/1
