# Wavefront OBJ
# Created by fragMOTION
# http://www.fragmosoft.com

mtllib book11.mtl
# 24 vertices
v -7.10958 0.000282807 -9.62032
v 6.35953 0 9.62032
v -7.09544 0 9.62032
v 6.35953 4.16334e-016 -9.62032
v -7.09544 1.38097 -9.62032
v 6.35953 1.38097 9.62032
v 6.35953 1.38097 -9.62032
v -7.09544 1.38093 9.62032
v 7.10958 0.928077 9.62032
v 7.10958 0.421378 9.62032
v 7.10958 0.423215 -9.62032
v 7.10958 0.921905 -9.62032
v 6.2425 0.123207 -9.56962
v 6.85493 0.468769 -9.56962
v 6.85493 0.879124 -9.56962
v 6.23627 1.25777 -9.56962
v 6.24282 0.123205 9.56962
v 6.23731 1.25777 9.56962
v 6.85493 0.88484 9.56962
v 6.85493 0.467083 9.56962
v -7.00162 0.122588 9.53601
v -7.00162 1.25711 9.53601
v -7.00272 1.2681 -9.53601
v -7.0143 0.137411 -9.53601
# 56 texture vertices
vt 0.780287 0.556229
vt 0.780287 0.340111
vt 0.649979 0.340111
vt 0.649979 0.556229
vt 0.97542 0.339737
vt 0.846438 0.339737
vt 0.97542 0.556319
vt 0.846438 0.556319
vt 0.71092 0.0861307
vt 0.394069 0.0856851
vt 0.394069 0.0396418
vt 0.71092 0.0402427
vt 0.649154 0.55702
vt 0.650804 0.55702
vt 0.650804 0.339324
vt 0.845466 0.555239
vt 0.824445 0.555239
vt 0.824445 0.341368
vt 0.649154 0.339324
vt 0.845466 0.341368
vt 0.845768 0.341113
vt 0.845611 0.55667
vt 0.847189 0.341113
vt 0.782477 0.555239
vt 0.782477 0.341368
vt 0.804514 0.555239
vt 0.804514 0.341368
vt 0.647116 0.0397271
vt 0.656284 0.0537543
vt 0.656269 0.0704112
vt 0.646994 0.0857663
vt 0.448862 0.0860453
vt 0.457968 0.0398802
vt 0.656193 0.0398551
vt 0.458061 0.0859173
vt 0.448806 0.0707889
vt 0.448796 0.0538302
vt 0.847181 0.55667
vt 0.656188 0.0859073
vt 0.448705 0.0401515
vt 0.649979 0.557811
vt 0.845466 0.557989
vt 0.824445 0.557989
vt 0.781937 0.338537
vt 0.845466 0.338591
vt 0.782477 0.557989
vt 0.976919 0.338233
vt 0.846438 0.557897
vt 0.804514 0.338591
vt 0.824445 0.338591
vt 0.782477 0.338591
vt 0.976911 0.557897
vt 0.804514 0.557989
vt 0.649979 0.338537
vt 0.846438 0.338233
vt 0.781937 0.557811
# 64 normals
vn -0.000796771 0.454087 -0.890957
vn -0.807924 0.589286 0.000790894
vn -1.04984e-005 -1 -7.3492e-006
vn -0.0735974 0.369191 0.926435
vn 0.490604 -0.871383 -4.16239e-005
vn -1.04984e-005 -1 -7.3492e-006
vn 0 0.566709 0.823918
vn -0.79392 0.608022 0.000592348
vn 0 -1 -1.46984e-005
vn -0.0725909 0.319858 -0.944681
vn 0.491414 -0.870926 -6.70003e-017
vn -2.09967e-005 -1 -2.16377e-017
vn 0 -0.598459 -0.801154
vn -0.772701 -0.63477 -1.5435e-006
vn 0 1 2.43159e-006
vn -0.0748072 -0.315184 0.946078
vn 0.516895 0.856049 1.19123e-017
vn -3.47718e-006 1 4.6398e-017
vn -0.0766851 -0.37222 -0.924971
vn 0.519464 0.854492 -0.000136805
vn -1.73859e-006 1 1.21579e-006
vn -0.00103929 -0.474866 0.880057
vn -0.785061 -0.619418 -0.000151798
vn -1.73859e-006 1 1.21579e-006
vn -0.173451 -0.124242 0.976974
vn 0.871627 0.49017 -7.84768e-005
vn -0.171247 0.129485 0.976682
vn 0.863074 -0.505077 -4.82274e-005
vn -0.171384 0.129172 -0.9767
vn 0.863309 -0.504676 -2.41072e-005
vn -0.173851 -0.123246 -0.977029
vn 0.872361 0.488861 -0.000156821
vn -0.073361 0.357814 -0.930907
vn -0.00126849 3.01003e-006 -0.999999
vn -0.171384 0.129172 -0.9767
vn -3.53412e-015 0 -1
vn -0.173851 -0.123246 -0.977029
vn -3.67153e-015 0 -1
vn -0.0765531 -0.313044 -0.946648
vn -0.00126935 -6.96108e-006 -0.999999
vn -0.0736271 0.319141 0.944843
vn -0.00126882 -6.16503e-006 0.999999
vn -0.0759057 -0.364033 0.928288
vn -0.00126909 -3.08251e-006 0.999999
vn -0.173451 -0.124242 0.976974
vn 0 0 1
vn -0.171247 0.129485 0.976682
vn -1.27544e-015 0 1
vn -0.00118995 0.475421 0.879758
vn -0.00253817 -6.16502e-006 0.999997
vn -0.807924 0.589286 0.000790894
vn -0.999987 0.00512005 0.000364848
vn -0.0020686 -0.563957 0.825802
vn -0.0025387 0 0.999997
vn -0.797117 -0.603825 -0.000301993
vn -1 0 5.73267e-005
vn -0.00133326 -0.492353 -0.870395
vn -0.00253697 6.02005e-006 -0.999997
vn -0.785061 -0.619418 -0.000151798
vn -0.999987 0.00512005 0.000364848
vn -0.00159632 0.524596 -0.85135
vn -0.00253525 2.59623e-005 -0.999997
vn -0.821486 0.570228 0.000989007
vn -0.999947 0.01024 0.000672359
usemtl books_D
g mesh
s 1
f 1/1/3 2/3/6 3/2/9
f 4/4/12 2/3/6 1/1/3
f 5/5/15 8/7/24 7/6/21
f 7/6/21 8/7/24 6/8/18
f 23/9/60 21/11/52 22/10/56
f 24/12/64 21/11/52 23/9/60
s 2
f 1/13/2 21/15/51 24/14/63
f 2/16/5 11/18/30 10/17/28
f 3/19/8 21/15/51 1/13/2
f 4/20/11 11/18/30 2/16/5
f 5/21/14 23/23/59 8/22/23
f 6/24/17 9/26/26 7/25/20
f 7/25/20 9/26/26 12/27/32
f 9/26/26 11/18/30 12/27/32
f 10/17/28 11/18/30 9/26/26
f 13/28/34 15/30/38 14/29/36
f 15/30/38 13/28/34 16/31/40
f 16/31/40 13/28/34 23/32/58
f 17/33/42 18/35/44 21/34/50
f 18/35/44 20/37/48 19/36/46
f 20/37/48 18/35/44 17/33/42
f 22/38/55 8/22/23 23/23/59
f 22/39/54 21/34/50 18/35/44
f 24/40/62 23/32/58 13/28/34
s 3
f 1/1/1 13/41/33 4/4/10
f 2/16/4 20/43/47 17/42/41
f 2/3/4 21/44/49 3/2/7
f 4/20/10 13/45/33 11/18/29
f 6/24/16 18/46/43 9/26/25
f 7/6/19 23/47/57 5/5/13
f 8/7/22 18/48/43 6/8/16
f 9/26/25 20/43/47 10/17/27
f 10/17/27 20/43/47 2/16/4
f 11/18/29 15/49/37 12/27/31
f 12/27/31 15/49/37 7/25/19
f 14/50/35 11/18/29 13/45/33
f 15/49/37 11/18/29 14/50/35
f 16/51/39 7/25/19 15/49/37
f 18/48/43 8/7/22 22/52/53
f 19/53/45 9/26/25 18/46/43
f 20/43/47 9/26/25 19/53/45
f 21/44/49 2/3/4 17/54/41
f 23/47/57 7/6/19 16/55/39
f 24/56/61 13/41/33 1/1/1
