# Wavefront OBJ
# Created by fragMOTION
# http://www.fragmosoft.com

mtllib book01.mtl
# 16 vertices
v 9.58824 0.000623079 12.5997
v -9.58824 0 -12.5997
v 9.58824 0 -12.5997
v -9.58824 1.11022e-015 12.5997
v 9.58824 3.04256 12.5997
v -9.58824 3.04256 -12.5997
v -9.58824 3.04256 12.5997
v 9.58824 3.04245 -12.5997
v 9.30227 0.286585 12.4992
v 9.30227 2.75659 12.4992
v 9.30227 2.75648 -12.4992
v 9.30227 0.285971 -12.4992
v -9.48782 2.755 -12.4992
v -9.48782 0.280709 -12.4992
v -9.48782 2.76982 12.4992
v -9.48782 0.298077 12.4992
# 53 texture vertices
vt 0.622465 0.559
vt 0.620598 0.559629
vt 0.620495 0.777697
vt 0.622465 0.778327
vt 0.792286 0.77784
vt 0.927116 0.77784
vt 0.792286 0.559011
vt 0.927116 0.559011
vt 0.6706 0.0392712
vt 0.432989 0.0394873
vt 0.6706 0.0857098
vt 0.432989 0.0858885
vt 0.6706 0.0858606
vt 0.755852 0.559032
vt 0.755858 0.77849
vt 0.791748 0.559032
vt 0.791749 0.77849
vt 0.924323 0.556593
vt 0.92438 0.77542
vt 0.927014 0.557463
vt 0.926947 0.774549
vt 0.755404 0.778309
vt 0.620779 0.778569
vt 0.621396 0.776597
vt 0.620613 0.56126
vt 0.755246 0.56126
vt 0.753455 0.559361
vt 0.756143 0.558976
vt 0.756143 0.59781
vt 0.758732 0.561619
vt 0.791189 0.597985
vt 0.791189 0.559157
vt 0.788601 0.595343
vt 0.927116 0.775359
vt 0.792288 0.775359
vt 0.794814 0.777983
vt 0.792464 0.561938
vt 0.927271 0.561938
vt 0.926407 0.559302
vt 0.788601 0.561799
vt 0.758732 0.595168
vt 0.794967 0.559314
vt 0.621242 0.559392
vt 0.393734 0.0392161
vt 0.393734 0.0857353
vt 0.709855 0.0395424
vt 0.926229 0.777875
vt 0.709855 0.0860138
vt 0.753615 0.776413
vt 0.755173 0.778608
vt 0.755173 0.559278
vt 0.620539 0.559278
vt 0.620539 0.778608
# 48 normals
vn 1.62459e-005 -1 1.2363e-005
vn -0.170268 0.167267 0.971098
vn 1 0 0
vn 1.62459e-005 -1 1.2363e-005
vn -4.71691e-005 0.334091 -0.942541
vn -0.944644 0.328096 -0.00011704
vn 0 -1 2.4726e-005
vn -0.170401 0.170401 -0.970529
vn 1 0 0
vn 3.24919e-005 -1 4.40542e-017
vn -1.03734e-005 0.319263 0.947666
vn -0.947667 0.31926 5.29644e-017
vn -0.170401 -0.170401 0.970529
vn 1 0 0
vn 0 1 -4.09048e-006
vn -1.77214e-006 -0.329689 -0.94409
vn -0.94409 -0.329688 1.06486e-016
vn 5.3752e-006 1 -8.11843e-017
vn -0.000121731 -0.338467 0.940978
vn -0.941272 -0.337648 0.000102472
vn 2.6876e-006 1 -2.04524e-006
vn -0.170383 -0.169977 -0.970607
vn 1 0 0
vn 2.6876e-006 1 -2.04524e-006
vn -0.170303 0.170505 0.970528
vn 5.98032e-017 0 1
vn -0.170573 -0.174184 0.969827
vn 2.27303e-017 0 1
vn -0.170389 -0.170415 -0.970529
vn 0 0 -1
vn -0.170467 0.171868 -0.970259
vn -2.53723e-017 0 -1
vn -1 0 1.42117e-016
vn 1.22187e-005 -0.330516 -0.9438
vn -0.941272 -0.337648 0.000102472
vn -2.53723e-017 0 -1
vn -1 0 1.42117e-016
vn -9.43377e-005 0.33686 -0.941555
vn -5.07446e-017 0 -1
vn -0.941539 0.336904 -0.00023407
vn -1 0 1.42117e-016
vn -0.000243455 -0.345597 0.938383
vn -0.938388 -0.345584 0.000204937
vn -1.43426e-017 0 1
vn 9.61922e-005 0.325392 0.945579
vn -1 0 1.42117e-016
vn 2.27303e-017 0 1
vn -0.944644 0.328096 -0.00011704
usemtl books_D
g mesh
s 1
f 2/1/6 16/3/48 14/2/40
f 4/4/12 16/3/48 2/1/6
f 5/5/15 8/7/24 7/6/21
f 7/6/21 8/7/24 6/8/18
f 9/9/26 10/11/28 16/10/47
f 12/10/32 13/13/36 11/12/30
f 14/9/39 13/13/36 12/10/32
f 15/12/44 16/10/47 10/11/28
s 2
f 3/14/9 8/16/23 1/15/3
f 5/17/14 1/15/3 8/16/23
f 6/18/17 13/20/35 7/19/20
f 7/19/20 13/20/35 15/21/43
s 3
f 1/22/2 16/24/45 4/23/11
f 2/25/5 12/27/31 3/26/8
f 3/28/8 12/30/31 8/29/22
f 5/31/13 10/33/27 1/32/2
f 7/34/19 10/36/27 5/35/13
f 8/37/22 13/39/34 6/38/16
f 9/40/25 1/32/2 10/33/27
f 11/41/29 8/29/22 12/30/31
f 11/42/29 13/39/34 8/37/22
f 12/27/31 2/25/5 14/43/38
f 14/44/37 16/46/46 13/45/33
f 15/47/42 10/36/27 7/34/19
f 15/48/41 13/45/33 16/46/46
f 16/24/45 1/22/2 9/49/25
s 4
f 1/50/1 2/52/4 3/51/7
f 4/53/10 2/52/4 1/50/1
