# Wavefront OBJ
# Created by fragMOTION
# http://www.fragmosoft.com

mtllib table02.mtl
# 64 vertices
v -40.4289 31.7155 24.5292
v -40.4354 34.0379 24.5227
v 40.4203 34.0378 24.5452
v 40.4203 31.7155 24.5452
v -40.4426 31.7155 -24.5149
v -40.4426 34.0378 -24.5149
v 40.4345 34.0378 -24.5313
v 40.4345 31.7155 -24.5313
v 40.7399 31.7155 22.5862
v 40.7399 34.0378 22.5862
v -40.7399 34.0378 22.594
v -40.7321 31.7155 22.5862
v -40.7321 31.7155 -22.3951
v -40.7321 34.0378 -22.3951
v 40.7399 34.0378 -22.3951
v 40.7399 31.7155 -22.3951
v 38.3041 34.0378 -22.3951
v 37.9984 31.7155 -22.0898
v 38.3041 34.0378 22.5862
v 38.0041 31.7155 22.2754
v 38.3041 34.0378 -24.8376
v 38.3041 31.7155 -24.8376
v 38.3041 34.0378 24.8376
v 38.3041 31.7155 24.8376
v -38.2054 31.7155 22.2818
v -38.5118 34.0378 -22.3951
v -38.1998 31.7155 -22.0963
v -38.504 34.0378 22.594
v -38.5118 34.0378 -24.8376
v -38.5118 31.7155 -24.8376
v -38.504 34.0378 24.8298
v -38.5118 31.7155 24.8376
v -40.4426 0 -24.5149
v -38.5118 0 -24.8376
v -38.1998 0 -22.0963
v -40.7321 0 -22.3951
v 40.7399 0 22.5862
v 40.4203 0 24.5452
v 38.3041 0 24.8376
v 38.0041 0 22.2754
v 40.4345 0 -24.5313
v 40.7399 0 -22.3951
v 37.9984 0 -22.0898
v 38.3041 0 -24.8376
v -38.5118 4.79263e-006 24.8376
v -40.4289 4.79263e-006 24.5292
v -40.7321 4.79263e-006 22.5862
v -38.2054 4.79263e-006 22.2818
v 37.5601 0 23.7119
v 37.5601 31.7155 23.7119
v 39.522 0 21.8422
v 39.522 31.7155 21.8422
v 39.522 0 -21.6511
v 39.522 31.7155 -21.6511
v 37.5601 0 -23.6163
v 37.5601 31.7155 -23.6163
v -39.622 4.79263e-006 21.8422
v -39.622 31.7155 21.8422
v -37.7678 4.79263e-006 23.7119
v -37.7678 31.7155 23.7119
v -37.7678 0 -23.6163
v -37.7678 31.7155 -23.6163
v -39.622 0 -21.6511
v -39.622 31.7155 -21.6511
# 172 texture vertices
vt 0.1999 0.119464
vt 0.223665 0.119452
vt 0.223572 0.0913856
vt 0.0980231 0.29004
vt 0.0980238 0.338792
vt 0.894343 0.338792
vt 0.984278 0.0903174
vt 0.960644 0.0903305
vt 0.984203 0.118383
vt 0.788238 0.0975943
vt 0.764928 0.093914
vt 0.764928 0.120935
vt 0.792298 0.0903466
vt 0.768311 0.0903466
vt 0.768311 0.118413
vt 0.00997569 0.110916
vt 0.035551 0.11445
vt 0.035551 0.0872424
vt 0.00658987 0.0903179
vt 0.00658949 0.118384
vt 0.0324078 0.118384
vt 0.792298 0.118413
vt 0.0986171 0.270662
vt 0.0986171 0.320497
vt 0.894937 0.270662
vt 0.793126 0.119464
vt 0.793127 0.0913982
vt 0.76727 0.119464
vt 0.10042 0.268895
vt 0.10042 0.322614
vt 0.89674 0.268895
vt 0.767271 0.0913976
vt 0.980234 0.0968917
vt 0.9569 0.0929925
vt 0.9569 0.12251
vt 0.00757365 0.0914581
vt 0.00757365 0.119524
vt 0.0312316 0.119524
vt 0.198626 0.0903466
vt 0.198626 0.118413
vt 0.224705 0.0903466
vt 0.20237 0.111569
vt 0.228187 0.11526
vt 0.228187 0.0858222
vt 0.224705 0.118413
vt 0.985574 0.119524
vt 0.985574 0.0914581
vt 0.959562 0.0914581
vt 0.101134 0.248255
vt 0.101134 0.302298
vt 0.897454 0.302298
vt 0.0986171 0.356331
vt 0.894937 0.356331
vt 0.767208 0.0883855
vt 0.223474 0.0895021
vt 0.232527 0.104203
vt 0.771793 0.11526
vt 0.795466 0.111398
vt 0.771793 0.0858222
vt 0.199974 0.0913982
vt 0.221229 0.0940079
vt 0.221229 0.120841
vt 0.0980238 0.240665
vt 0.894343 0.240665
vt 0.224763 0.120156
vt 0.768493 0.119053
vt 0.759446 0.105655
vt 0.10042 0.356169
vt 0.89674 0.356169
vt 0.195611 0.0975065
vt 0.101134 0.194074
vt 0.897454 0.194074
vt 0.101134 0.158239
vt 0.0285692 0.12251
vt 0.0285692 0.0929925
vt 0.099436 0.249954
vt 0.099436 0.289762
vt 0.895756 0.249954
vt 0.101134 0.37808
vt 0.897454 0.37808
vt 0.101134 0.338203
vt 0.993864 0.414432
vt 0.00623307 0.414333
vt 0.0061331 0.992821
vt 0.963787 0.114357
vt 0.0100317 0.418343
vt 0.0101047 0.988809
vt 0.989893 0.988893
vt 0.0986171 0.14539
vt 0.0986171 0.183142
vt 0.894937 0.183142
vt 0.0986171 0.395964
vt 0.894937 0.395964
vt 0.763451 0.121452
vt 0.758216 0.103123
vt 0.957141 0.0892782
vt 0.0361141 0.0883047
vt 0.0413632 0.105592
vt 0.00282221 0.0966936
vt 0.0312316 0.0914581
vt 0.959562 0.119524
vt 0.0324081 0.0903183
vt 0.960738 0.118397
vt 0.0986171 0.217021
vt 0.894937 0.217021
vt 0.960767 0.120244
vt 0.951774 0.106631
vt 0.989965 0.418261
vt 0.0980238 0.169869
vt 0.0980238 0.20711
vt 0.894343 0.169869
vt 0.099436 0.288634
vt 0.895756 0.288634
vt 0.099436 0.251082
vt 0.993864 0.992821
vt 0.0349222 0.12153
vt 0.955809 0.122668
vt 0.950553 0.104216
vt 0.228374 0.0895491
vt 0.233755 0.106721
vt 0.10042 0.144162
vt 0.10042 0.183838
vt 0.89674 0.183838
vt 0.10042 0.393586
vt 0.89674 0.393586
vt 0.963787 0.0873357
vt 0.10042 0.219743
vt 0.0311515 0.0883997
vt 0.0401436 0.103169
vt 0.89674 0.219743
vt 0.987128 0.110645
vt 0.0980238 0.372671
vt 0.0323401 0.119185
vt 0.463274 0.299256
vt 0.516499 0.306524
vt 0.485836 0.232095
vt 0.455173 0.250776
vt 0.524 0.242943
vt 0.535179 0.27865
vt 0.89674 0.322614
vt 0.894937 0.320497
vt 0.530328 0.237508
vt 0.481143 0.229484
vt 0.462463 0.260064
vt 0.53767 0.290643
vt 0.473338 0.298175
vt 0.509407 0.309324
vt 0.897454 0.248255
vt 0.465266 0.234736
vt 0.488239 0.306909
vt 0.537583 0.257649
vt 0.518902 0.227069
vt 0.897454 0.158239
vt 0.526567 0.295902
vt 0.897454 0.338203
vt 0.457576 0.288228
vt 0.894343 0.29004
vt 0.527535 0.301477
vt 0.535277 0.253343
vt 0.507014 0.234662
vt 0.478751 0.309091
vt 0.46007 0.281217
vt 0.894343 0.20711
vt 0.471106 0.245649
vt 0.895756 0.251082
vt 0.894937 0.14539
vt 0.895756 0.289762
vt 0.2273 0.122622
vt 0.959579 0.0894674
vt 0.764689 0.0885283
vt 0.894343 0.372671
vt 0.89674 0.144162
# 64 normals
vn -0.708435 -5.69703e-006 0.705776
vn -0.444997 0.777422 0.444514
vn 0.593201 0.527843 0.607861
vn 0.698424 0 0.715684
vn -0.717581 0 -0.696475
vn -0.609615 0.527522 -0.591684
vn 0.441997 0.780759 -0.441649
vn 0.707386 0 -0.706828
vn 0.951317 -0.272176 -0.144622
vn 0.703643 0.708263 0.0570169
vn -0.797617 0.59995 0.0621898
vn -0.952108 -0.271438 -0.140754
vn -0.951221 -0.269284 0.150547
vn -0.704664 0.707919 -0.0479539
vn 0.79726 0.600968 -0.0566934
vn 0.949965 -0.271326 0.154752
vn 0 1 0
vn -0.356418 -0.863782 0.356156
vn 0 1 0
vn -0.353658 -0.862713 -0.361459
vn 0.0570073 0.600979 -0.797229
vn -0.154556 -0.271425 -0.949969
vn 0.0484116 0.707941 0.70461
vn -0.150952 -0.268841 0.951282
vn 0.359711 -0.861528 -0.358299
vn 0 1 0
vn 0.362469 -0.862561 0.352993
vn 1.3431e-006 1 -1.34488e-006
vn -0.0583715 0.708319 -0.703475
vn 0.142844 -0.272413 -0.951518
vn -0.0632413 0.602416 0.795673
vn 0.139652 -0.268385 0.953135
vn -0.609615 -0.527522 -0.591684
vn 0.356138 -0.516755 -0.778543
vn 0.622861 -0.494071 0.606578
vn -0.590057 -0.762581 0.265147
vn 0.778427 -0.516106 -0.357331
vn 0.593201 -0.527843 0.607861
vn -0.26618 -0.763378 0.58856
vn -0.60793 -0.494327 -0.621339
vn 0.33298 -0.882283 -0.332718
vn 0.866673 -0.28674 0.408238
vn -0.68015 -0.274724 0.679649
vn -0.408399 -0.286914 -0.86654
vn 0.385251 -0.285188 0.877639
vn -0.265788 -0.927021 0.264555
vn -0.878228 -0.28426 -0.384593
vn 0.616682 -0.492329 -0.614261
vn -0.866231 -0.484026 0.123944
vn -0.663814 -0.741842 0.0949814
vn 0.0910382 -0.737456 -0.669232
vn 0.0910382 -0.737456 -0.669232
vn 0.0695947 -0.853612 0.51624
vn 0.0902084 -0.737633 0.669149
vn -0.516418 -0.853512 -0.0694939
vn -0.669326 -0.737489 -0.0900707
vn -0.0966586 -0.742433 -0.662911
vn -0.0966586 -0.742433 -0.662911
vn 0.663925 -0.741615 0.0959703
vn 0.663925 -0.741615 0.0959703
vn 0.669421 -0.737287 -0.0910131
vn 0.669421 -0.737287 -0.0910131
vn -0.125083 -0.484908 0.865574
vn -0.0957823 -0.742635 0.662811
usemtl table02_D
g mesh
s 1
f 1/1/1 11/3/11 12/2/12
f 1/4/1 45/6/45 32/5/32
f 2/7/2 1/9/1 31/8/31
f 2/10/2 28/12/28 11/11/11
f 3/13/3 9/15/9 10/14/10
f 3/16/3 19/18/19 23/17/23
f 3/19/3 24/21/24 4/20/4
f 4/22/4 9/15/9 3/13/3
f 4/23/4 38/25/38 9/24/9
f 5/26/5 13/28/13 6/27/6
f 5/29/5 33/31/33 13/30/13
f 6/27/6 13/28/13 14/32/14
f 6/33/6 26/35/26 29/34/29
f 6/36/6 30/38/30 5/37/5
f 7/39/7 15/41/15 8/40/8
f 7/42/7 17/44/17 15/43/15
f 8/40/8 15/41/15 16/45/16
f 8/46/8 21/48/21 7/47/7
f 8/49/8 44/51/44 22/50/22
f 9/24/9 51/53/51 52/52/52
f 9/54/9 54/56/54 16/55/16
f 10/14/10 9/15/9 15/41/15
f 10/57/10 19/59/19 3/58/3
f 11/3/11 1/1/1 2/60/2
f 11/11/11 26/62/26 14/61/14
f 12/2/12 11/3/11 13/28/13
f 12/63/12 47/64/47 1/4/1
f 13/65/13 58/67/58 12/66/12
f 13/30/13 63/69/63 64/68/64
f 14/32/14 13/28/13 11/3/11
f 14/61/14 26/62/26 6/70/6
f 15/43/15 19/59/19 10/57/10
f 16/45/16 15/41/15 9/15/9
f 16/71/16 42/72/42 8/49/8
f 16/71/16 54/73/54 42/72/42
f 17/44/17 19/59/19 15/43/15
f 17/74/17 21/75/21 26/35/26
f 18/76/18 43/78/43 54/77/54
f 18/79/18 56/81/56 43/80/43
f 19/82/19 26/84/26 28/83/28
f 19/18/19 31/85/31 23/17/23
f 20/86/20 27/88/27 18/87/18
f 20/89/20 49/91/49 50/90/50
f 20/92/20 51/53/51 40/93/40
f 20/94/20 54/56/54 52/95/52
f 20/96/20 60/98/60 25/97/25
f 21/75/21 17/74/17 7/99/7
f 21/48/21 30/38/30 29/100/29
f 22/101/22 21/48/21 8/46/8
f 22/101/22 30/38/30 21/48/21
f 22/50/22 44/51/44 56/81/56
f 23/102/23 24/21/24 3/19/3
f 23/102/23 31/8/31 24/21/24
f 24/21/24 31/8/31 32/103/32
f 24/104/24 38/25/38 4/23/4
f 24/104/24 49/91/49 39/105/39
f 24/106/24 60/98/60 50/107/50
f 25/108/25 27/88/27 20/86/20
f 25/109/25 48/111/48 58/110/58
f 25/112/25 60/114/60 48/113/48
f 26/84/26 19/82/19 17/115/17
f 27/116/27 56/118/56 18/117/18
f 27/119/27 58/67/58 64/120/64
f 27/121/27 61/123/61 62/122/62
f 27/124/27 63/69/63 35/125/35
f 28/12/28 26/62/26 11/11/11
f 28/126/28 31/85/31 19/18/19
f 29/34/29 26/35/26 21/75/21
f 29/100/29 30/38/30 6/36/6
f 30/127/30 33/31/33 5/29/5
f 30/128/30 56/118/56 62/129/62
f 30/127/30 61/123/61 34/130/34
f 31/85/31 28/126/28 2/131/2
f 32/103/32 31/8/31 1/9/1
f 32/5/32 45/6/45 60/132/60
f 32/133/32 60/98/60 24/106/24
f 33/31/33 30/127/30 34/130/34
f 33/134/33 61/136/61 36/135/36
f 34/137/34 61/136/61 33/134/33
f 35/138/35 63/139/63 61/136/61
f 36/140/36 13/30/13 33/31/33
f 36/135/36 61/136/61 63/139/63
f 37/141/37 9/24/9 38/25/38
f 37/141/37 51/53/51 9/24/9
f 38/25/38 24/104/24 39/105/39
f 38/142/38 51/144/51 37/143/37
f 39/145/39 51/144/51 38/142/38
f 40/146/40 51/144/51 49/147/49
f 41/148/41 8/49/8 42/72/42
f 41/148/41 44/51/44 8/49/8
f 41/149/41 53/151/53 55/150/55
f 42/152/42 53/151/53 41/149/41
f 42/72/42 54/73/54 53/153/53
f 43/154/43 55/150/55 53/151/53
f 43/80/43 56/81/56 55/155/55
f 44/156/44 41/149/41 55/150/55
f 45/6/45 1/4/1 46/157/46
f 46/157/46 1/4/1 47/64/47
f 46/158/46 59/160/59 45/159/45
f 47/161/47 57/162/57 46/158/46
f 47/64/47 58/110/58 57/163/57
f 48/164/48 46/158/46 57/162/57
f 48/113/48 60/114/60 59/165/59
f 49/91/49 20/89/20 40/166/40
f 49/147/49 51/144/51 39/145/39
f 50/90/50 49/91/49 24/104/24
f 50/107/50 60/98/60 20/96/20
f 52/52/52 51/53/51 20/92/20
f 52/95/52 54/56/54 9/54/9
f 53/167/53 54/77/54 43/78/43
f 54/56/54 20/94/20 18/168/18
f 55/155/55 56/81/56 44/51/44
f 56/118/56 30/128/30 22/169/22
f 57/163/57 58/110/58 48/111/48
f 58/67/58 27/119/27 25/170/25
f 58/110/58 47/64/47 12/63/12
f 59/160/59 46/158/46 48/164/48
f 59/171/59 60/132/60 45/6/45
f 61/123/61 27/121/27 35/172/35
f 62/129/62 56/118/56 27/116/27
f 62/122/62 61/123/61 30/127/30
f 63/69/63 13/30/13 36/140/36
f 64/120/64 58/67/58 13/65/13
f 64/68/64 63/69/63 27/124/27
