# Wavefront OBJ
# Created by fragMOTION
# http://www.fragmosoft.com

mtllib tv_remote_control.mtl
# 42 vertices
v -3.00921 0 -10.0505
v -2.02796 0 -10.34
v -1.01979 0 -10.5139
v 0.00176178 0 -10.5699
v 1.02291 0 -10.5072
v 2.02992 0 -10.3266
v 3.00921 0 -10.0303
v 2.8752 0 8.16955
v 2.39121 0 9.39376
v 1.39855 0 10.2584
v 0.119494 0 10.5699
v -1.15954 0 10.2584
v -2.1522 0 9.39376
v -2.6362 0 8.16955
v -3.00921 1.09676 -10.0505
v -2.6362 1.09676 8.16955
v -2.1522 1.09676 9.39376
v -1.15954 1.09676 10.2584
v 0.119494 1.09676 10.5699
v 1.39855 1.09676 10.2584
v 2.39121 1.09676 9.39376
v 2.8752 1.09676 8.16955
v 3.00921 1.09676 -10.0303
v 2.02992 1.09676 -10.3266
v 1.02291 1.09676 -10.5072
v 0.00176178 1.09676 -10.5699
v -1.01979 1.09676 -10.5139
v -2.02796 1.09676 -10.34
v -2.78901 0.548379 8.1776
v -2.28961 0.548379 9.46223
v -1.2501 0.548379 10.3824
v 0.0960741 0.548379 10.7216
v 1.44751 0.548379 10.4039
v 2.50159 0.548379 9.50047
v 3.01947 0.548379 8.22066
v 3.19172 0.548379 -10.1349
v 2.05705 0.548379 -10.4771
v 1.03239 0.548379 -10.6599
v -0.00647966 0.548379 -10.7226
v -1.04568 0.548379 -10.6647
v -2.07077 0.548379 -10.4868
v -3.16511 0.548379 -10.1933
# 79 texture vertices
vt 0.631169 0.966352
vt 0.614493 0.118665
vt 0.351443 0.965245
vt 0.585662 0.97978
vt 0.538943 0.98784
vt 0.443497 0.987452
vt 0.491209 0.9904
vt 0.396843 0.979029
vt 0.3581 0.1185
vt 0.38062 0.0616027
vt 0.592044 0.0617405
vt 0.426779 0.0214196
vt 0.545936 0.0214987
vt 0.486369 0.00688536
vt 0.00611899 0.970302
vt 0.0516139 0.983779
vt 0.0983274 0.991888
vt 0.0234729 0.122642
vt 0.285846 0.969444
vt 0.0459719 0.0657359
vt 0.0921156 0.0255334
vt 0.151691 0.0109662
vt 0.211271 0.0255456
vt 0.257396 0.065768
vt 0.279866 0.122685
vt 0.240433 0.983179
vt 0.146058 0.994475
vt 0.193771 0.991553
vt 0.933135 0.465986
vt 0.933135 0.416374
vt 0.906594 0.416374
vt 0.933135 0.368537
vt 0.933135 0.320574
vt 0.906594 0.320574
vt 0.906594 0.368537
vt 0.933135 0.272741
vt 0.933135 0.224716
vt 0.906594 0.224716
vt 0.906594 0.272741
vt 0.933135 0.17456
vt 0.906594 0.17456
vt 0.880052 0.465986
vt 0.906594 0.465986
vt 0.880052 0.17456
vt 0.880052 0.224716
vt 0.880052 0.272741
vt 0.880052 0.320574
vt 0.880052 0.368537
vt 0.880052 0.416374
vt 0.7792 1.30656
vt 0.752721 1.30656
vt 0.752721 0.456594
vt 0.779288 -0.768421
vt 0.779288 0.0802971
vt 0.752659 0.0802971
vt 0.779229 0.14318
vt 0.779229 0.206036
vt 0.752712 0.206036
vt 0.752712 0.14318
vt 0.752712 0.0801886
vt 0.779229 0.268962
vt 0.779229 0.330719
vt 0.752712 0.330719
vt 0.752712 0.268962
vt 0.779229 0.392981
vt 0.779229 0.456578
vt 0.752712 0.392981
vt 0.72624 1.30656
vt 0.72624 0.456594
vt 0.726194 0.392981
vt 0.726194 0.330719
vt 0.726194 0.268962
vt 0.726194 0.206036
vt 0.726194 0.14318
vt 0.726194 0.0801886
vt 0.726055 0.0802971
vt 0.726055 -0.768421
vt 0.752659 -0.768421
vt 0.779229 0.0801886
# 76 normals
vn -0.963035 -0.268652 0.019716
vn -0.259571 -0.289027 -0.921459
vn 0 -1 0
vn -0.218562 -0.268276 -0.938221
vn 0 -1 0
vn -0.108866 -0.268268 -0.957173
vn 0 -1 0
vn 0.00317909 -0.268245 -0.963346
vn 0 -1 0
vn 0.114271 -0.268252 -0.956547
vn 0 -1 0
vn 0.224913 -0.268243 -0.936728
vn 0 -1 0
vn 0.95856 -0.284777 0.00801761
vn 0.278571 -0.267738 -0.922342
vn 0 -1 0
vn 0.94632 -0.266066 0.183539
vn 0 -1 0
vn 0.784729 -0.266796 0.559482
vn 0 -1 0
vn 0.443636 -0.26665 0.855619
vn 0 -1 0
vn -0.00386316 -0.266801 0.963744
vn 0 -1 0
vn -0.442582 -0.26665 0.856165
vn 0 -1 0
vn -0.788533 -0.26812 0.553469
vn 0 -1 0
vn -0.944953 -0.266118 0.190381
vn 0 -1 0
vn -0.963035 0.268652 0.019716
vn -0.259571 0.289027 -0.921459
vn 0 1 -3.67759e-016
vn -0.944953 0.266118 0.190381
vn 0 1 -4.99886e-017
vn -0.788533 0.26812 0.553469
vn 0 1 -3.37217e-016
vn -0.442582 0.26665 0.856165
vn 0 1 -1.68609e-016
vn -0.00386316 0.266801 0.963744
vn 0 1 0
vn 0.443636 0.26665 0.855619
vn 0 1 7.24565e-017
vn 0.784729 0.266796 0.559482
vn 0 1 -7.18477e-018
vn 0.94632 0.266066 0.183539
vn 0 1 -8.06457e-017
vn 0.95856 0.284777 0.00801761
vn 0.278571 0.267738 -0.922342
vn 0 1 3.70933e-016
vn 0.224913 0.268243 -0.936728
vn 0 1 7.41032e-016
vn 0.114271 0.268252 -0.956547
vn 0 1 0
vn 0.00317909 0.268245 -0.963346
vn 0 1 5.55965e-016
vn -0.108866 0.268268 -0.957173
vn 0 1 -7.37356e-016
vn -0.218562 0.268276 -0.938221
vn 0 1 -2.21651e-015
vn -0.980616 0 0.195941
vn -0.820171 1.47882e-017 0.572118
vn -0.463283 2.95835e-017 0.88621
vn -0.00739865 2.95843e-017 0.999973
vn 0.456221 1.47917e-017 0.889867
vn 0.812265 1.47921e-017 0.583289
vn 0.981015 -5.87265e-017 0.19393
vn 0.999956 0 0.00938349
vn 0.288705 -5.7627e-017 -0.957418
vn 0.233005 2.16424e-017 -0.972476
vn 0.118148 0 -0.992996
vn 0.00279869 2.16424e-017 -0.999996
vn -0.11347 0 -0.993541
vn -0.220938 0 -0.975288
vn -0.99979 0 0.0204684
vn -0.259092 0 -0.965853
usemtl tv_remote_control_D
g mesh
s 1
f 1/1/3 7/3/16 14/2/30
f 2/4/5 7/3/16 1/1/3
f 3/5/7 5/6/11 2/4/5
f 4/7/9 5/6/11 3/5/7
f 6/8/13 2/4/5 5/6/11
f 7/3/16 2/4/5 6/8/13
f 8/9/18 14/2/30 7/3/16
f 9/10/20 13/11/28 8/9/18
f 10/12/22 12/13/26 9/10/20
f 11/14/24 12/13/26 10/12/22
f 13/11/28 9/10/20 12/13/26
f 14/2/30 8/9/18 13/11/28
f 15/15/33 27/17/58 28/16/60
f 16/18/35 23/19/50 15/15/33
f 17/20/37 18/21/39 16/18/35
f 19/22/41 16/18/35 18/21/39
f 20/23/43 16/18/35 19/22/41
f 21/24/45 16/18/35 20/23/43
f 22/25/47 16/18/35 21/24/45
f 23/19/50 16/18/35 22/25/47
f 24/26/52 26/27/56 23/19/50
f 25/28/54 26/27/56 24/26/52
f 26/27/56 15/15/33 23/19/50
f 27/17/58 15/15/33 26/27/56
s 2
f 1/29/2 41/31/74 2/30/4
f 2/30/4 41/31/74 3/32/6
f 3/32/6 39/34/72 4/33/8
f 3/32/6 41/31/74 40/35/73
f 5/36/10 37/38/70 6/37/12
f 5/36/10 39/34/72 38/39/71
f 7/40/15 37/38/70 36/41/69
f 15/42/32 41/31/74 42/43/76
f 23/44/49 37/38/70 24/45/51
f 24/45/51 37/38/70 25/46/53
f 25/46/53 37/38/70 38/39/71
f 25/46/53 39/34/72 26/47/55
f 26/47/55 39/34/72 27/48/57
f 27/48/57 39/34/72 40/35/73
f 27/48/57 41/31/74 28/49/59
f 28/49/59 41/31/74 15/42/32
f 36/41/69 37/38/70 23/44/49
f 37/38/70 7/40/15 6/37/12
f 38/39/71 37/38/70 5/36/10
f 38/39/71 39/34/72 25/46/53
f 39/34/72 5/36/10 4/33/8
f 40/35/73 39/34/72 3/32/6
f 40/35/73 41/31/74 27/48/57
f 42/43/76 41/31/74 1/29/2
s 3
f 1/50/1 29/52/61 42/51/75
f 7/53/14 35/55/67 8/54/17
f 9/56/19 33/58/65 10/57/21
f 9/56/19 35/60/67 34/59/66
f 11/61/23 31/63/63 12/62/25
f 11/61/23 33/58/65 32/64/64
f 13/65/27 29/52/61 14/66/29
f 13/65/27 31/63/63 30/67/62
f 14/66/29 29/52/61 1/50/1
f 15/68/31 29/52/61 16/69/34
f 16/69/34 29/52/61 17/70/36
f 17/70/36 29/52/61 30/67/62
f 17/70/36 31/63/63 18/71/38
f 18/71/38 31/63/63 19/72/40
f 19/72/40 31/63/63 32/64/64
f 19/72/40 33/58/65 20/73/42
f 20/73/42 33/58/65 21/74/44
f 21/74/44 33/58/65 34/59/66
f 21/74/44 35/60/67 22/75/46
f 22/76/46 35/55/67 23/77/48
f 23/77/48 35/55/67 36/78/68
f 30/67/62 29/52/61 13/65/27
f 30/67/62 31/63/63 17/70/36
f 31/63/63 13/65/27 12/62/25
f 32/64/64 31/63/63 11/61/23
f 32/64/64 33/58/65 19/72/40
f 33/58/65 11/61/23 10/57/21
f 34/59/66 33/58/65 9/56/19
f 34/59/66 35/60/67 21/74/44
f 35/60/67 9/56/19 8/79/17
f 36/78/68 35/55/67 7/53/14
f 42/51/75 29/52/61 15/68/31
